<mxfile host="65bd71144e">
    <diagram id="XzSfutSf881UCjyozXv0" name="Page-1">
        <mxGraphModel dx="1377" dy="733" grid="1" gridSize="10" guides="1" tooltips="1" connect="1" arrows="1" fold="1" page="1" pageScale="1" pageWidth="850" pageHeight="1100" math="0" shadow="0">
            <root>
                <mxCell id="0"/>
                <mxCell id="1" parent="0"/>
                <UserObject label="" mermaidData="{&#10;  &quot;data&quot;: &quot;classDiagram\nclass GetYesNoAnswer\nGetYesNoAnswer : -_dio Dio\nGetYesNoAnswer o-- Dio\nGetYesNoAnswer : +getAnswer() dynamic\n\nclass YesNoModel\nYesNoModel : +answer String\nYesNoModel : +forced bool\nYesNoModel : +imageUrl String\n\nclass AppTheme\nAppTheme : +selectedColor int\nAppTheme : +theme() ThemeData\n\nclass Message\nMessage : +text String\nMessage : +imageUrl String?\nMessage : +fromWho FromWho\nMessage o-- FromWho\n\nclass FromWho\n&lt;&lt;enumeration&gt;&gt; FromWho\nFromWho : +index int\nFromWho : +values$ List~FromWho~\nFromWho : +me$ FromWho\nFromWho o-- FromWho\nFromWho : +other$ FromWho\nFromWho o-- FromWho\nEnum &lt;|.. FromWho\n\nclass MyApp\nMyApp : +build() Widget\nStatelessWidget &lt;|-- MyApp\n\nclass ChatScreen\nChatScreen : +build() Widget\nStatelessWidget &lt;|-- ChatScreen\n\nclass ChatView\nChatView : +build() Widget\nStatelessWidget &lt;|-- ChatView\n\nclass ChatProvider\nChatProvider : +sc ScrollController\nChatProvider o-- ScrollController\nChatProvider : +getYesNoanswer GetYesNoAnswer\nChatProvider o-- GetYesNoAnswer\nChatProvider : +messages List~Message~\nChatProvider : +sendMessage() dynamic\nChatProvider : +scrollToBottom() dynamic\nChatProvider : +otherReply() dynamic\nChangeNotifier &lt;|-- ChatProvider\n\nclass MyMessageBubble\nMyMessageBubble : +message Message\nMyMessageBubble o-- Message\nMyMessageBubble : +build() Widget\nStatelessWidget &lt;|-- MyMessageBubble\n\nclass MyMessageBubbleOther\nMyMessageBubbleOther : +message Message\nMyMessageBubbleOther o-- Message\nMyMessageBubbleOther : +build() Widget\nMyMessageBubbleOther : +nouw() String\nStatelessWidget &lt;|-- MyMessageBubbleOther\n\nclass _ImageBubble\n_ImageBubble : +url String?\n_ImageBubble : +build() Widget\nStatelessWidget &lt;|-- _ImageBubble\n\nclass MessageFieldBox\nMessageFieldBox : +onValue void FunctionString\nMessageFieldBox o-- void FunctionString\nMessageFieldBox : +build() Widget\nStatelessWidget &lt;|-- MessageFieldBoxv&quot;,&#10;  &quot;config&quot;: {&#10;    &quot;theme&quot;: &quot;neutral&quot;,&#10;    &quot;arrowMarkerAbsolute&quot;: false,&#10;    &quot;flowchart&quot;: {&#10;      &quot;htmlLabels&quot;: false&#10;    },&#10;    &quot;sequence&quot;: {&#10;      &quot;diagramMarginX&quot;: 50,&#10;      &quot;diagramMarginY&quot;: 10,&#10;      &quot;actorMargin&quot;: 50,&#10;      &quot;width&quot;: 150,&#10;      &quot;height&quot;: 65,&#10;      &quot;boxMargin&quot;: 10,&#10;      &quot;boxTextMargin&quot;: 5,&#10;      &quot;noteMargin&quot;: 10,&#10;      &quot;messageMargin&quot;: 35,&#10;      &quot;mirrorActors&quot;: true,&#10;      &quot;bottomMarginAdj&quot;: 1,&#10;      &quot;useMaxWidth&quot;: true,&#10;      &quot;rightAngles&quot;: false,&#10;      &quot;showSequenceNumbers&quot;: false&#10;    },&#10;    &quot;gantt&quot;: {&#10;      &quot;titleTopMargin&quot;: 25,&#10;      &quot;barHeight&quot;: 20,&#10;      &quot;barGap&quot;: 4,&#10;      &quot;topPadding&quot;: 50,&#10;      &quot;leftPadding&quot;: 75,&#10;      &quot;gridLineStartPadding&quot;: 35,&#10;      &quot;fontSize&quot;: 11,&#10;      &quot;fontFamily&quot;: &quot;\&quot;Open-Sans\&quot;, \&quot;sans-serif\&quot;&quot;,&#10;      &quot;numberSectionStyles&quot;: 4,&#10;      &quot;axisFormat&quot;: &quot;%Y-%m-%d&quot;&#10;    }&#10;  }&#10;}" id="40">
                    <mxCell style="shape=image;noLabel=1;verticalAlign=top;imageAspect=1;image=data:image/svg+xml,PHN2ZyBhcmlhLWxhYmVsbGVkYnk9ImNoYXJ0LXRpdGxlLWdlTWVybWFpZE91dHB1dC0xNjk2MTI1Nzk5OTY2IGNoYXJ0LWRlc2MtZ2VNZXJtYWlkT3V0cHV0LTE2OTYxMjU3OTk5NjYiIHJvbGU9ImltZyIgdmlld0JveD0iMCAwIDE5MDUuNzc5NjkzNjAzNTE1NiA3NzYuMzk5OTkzODk2NDg0NCIgc3R5bGU9Im1heC13aWR0aDogMTkwNS43Nzk2OTM2MDM1MTU2cHg7IiBoZWlnaHQ9Ijc3Ni4zOTk5OTM4OTY0ODQ0IiB4bWxuczp4bGluaz0iaHR0cDovL3d3dy53My5vcmcvMTk5OS94bGluayIgeG1sbnM9Imh0dHA6Ly93d3cudzMub3JnLzIwMDAvc3ZnIiB3aWR0aD0iMTAwJSIgaWQ9ImdlTWVybWFpZE91dHB1dC0xNjk2MTI1Nzk5OTY2Ij48dGl0bGUgaWQ9ImNoYXJ0LXRpdGxlLWdlTWVybWFpZE91dHB1dC0xNjk2MTI1Nzk5OTY2Ij48L3RpdGxlPjxkZXNjIGlkPSJjaGFydC1kZXNjLWdlTWVybWFpZE91dHB1dC0xNjk2MTI1Nzk5OTY2Ij48L2Rlc2M+PHN0eWxlPiNnZU1lcm1haWRPdXRwdXQtMTY5NjEyNTc5OTk2NiB7Zm9udC1mYW1pbHk6InRyZWJ1Y2hldCBtcyIsdmVyZGFuYSxhcmlhbCxzYW5zLXNlcmlmO2ZvbnQtc2l6ZToxNnB4O2ZpbGw6I2NjYzt9I2dlTWVybWFpZE91dHB1dC0xNjk2MTI1Nzk5OTY2IC5lcnJvci1pY29ue2ZpbGw6I2E0NDE0MTt9I2dlTWVybWFpZE91dHB1dC0xNjk2MTI1Nzk5OTY2IC5lcnJvci10ZXh0e2ZpbGw6I2RkZDtzdHJva2U6I2RkZDt9I2dlTWVybWFpZE91dHB1dC0xNjk2MTI1Nzk5OTY2IC5lZGdlLXRoaWNrbmVzcy1ub3JtYWx7c3Ryb2tlLXdpZHRoOjJweDt9I2dlTWVybWFpZE91dHB1dC0xNjk2MTI1Nzk5OTY2IC5lZGdlLXRoaWNrbmVzcy10aGlja3tzdHJva2Utd2lkdGg6My41cHg7fSNnZU1lcm1haWRPdXRwdXQtMTY5NjEyNTc5OTk2NiAuZWRnZS1wYXR0ZXJuLXNvbGlke3N0cm9rZS1kYXNoYXJyYXk6MDt9I2dlTWVybWFpZE91dHB1dC0xNjk2MTI1Nzk5OTY2IC5lZGdlLXBhdHRlcm4tZGFzaGVke3N0cm9rZS1kYXNoYXJyYXk6Mzt9I2dlTWVybWFpZE91dHB1dC0xNjk2MTI1Nzk5OTY2IC5lZGdlLXBhdHRlcm4tZG90dGVke3N0cm9rZS1kYXNoYXJyYXk6Mjt9I2dlTWVybWFpZE91dHB1dC0xNjk2MTI1Nzk5OTY2IC5tYXJrZXJ7ZmlsbDpsaWdodGdyZXk7c3Ryb2tlOmxpZ2h0Z3JleTt9I2dlTWVybWFpZE91dHB1dC0xNjk2MTI1Nzk5OTY2IC5tYXJrZXIuY3Jvc3N7c3Ryb2tlOmxpZ2h0Z3JleTt9I2dlTWVybWFpZE91dHB1dC0xNjk2MTI1Nzk5OTY2IHN2Z3tmb250LWZhbWlseToidHJlYnVjaGV0IG1zIix2ZXJkYW5hLGFyaWFsLHNhbnMtc2VyaWY7Zm9udC1zaXplOjE2cHg7fSNnZU1lcm1haWRPdXRwdXQtMTY5NjEyNTc5OTk2NiBnLmNsYXNzR3JvdXAgdGV4dHtmaWxsOiM4MUIxREI7ZmlsbDojZTBkZmRmO3N0cm9rZTpub25lO2ZvbnQtZmFtaWx5OiJ0cmVidWNoZXQgbXMiLHZlcmRhbmEsYXJpYWwsc2Fucy1zZXJpZjtmb250LXNpemU6MTBweDt9I2dlTWVybWFpZE91dHB1dC0xNjk2MTI1Nzk5OTY2IGcuY2xhc3NHcm91cCB0ZXh0IC50aXRsZXtmb250LXdlaWdodDpib2xkZXI7fSNnZU1lcm1haWRPdXRwdXQtMTY5NjEyNTc5OTk2NiAubm9kZUxhYmVsLCNnZU1lcm1haWRPdXRwdXQtMTY5NjEyNTc5OTk2NiAuZWRnZUxhYmVse2NvbG9yOiNlMGRmZGY7fSNnZU1lcm1haWRPdXRwdXQtMTY5NjEyNTc5OTk2NiAuZWRnZUxhYmVsIC5sYWJlbCByZWN0e2ZpbGw6IzFmMjAyMDt9I2dlTWVybWFpZE91dHB1dC0xNjk2MTI1Nzk5OTY2IC5sYWJlbCB0ZXh0e2ZpbGw6I2UwZGZkZjt9I2dlTWVybWFpZE91dHB1dC0xNjk2MTI1Nzk5OTY2IC5lZGdlTGFiZWwgLmxhYmVsIHNwYW57YmFja2dyb3VuZDojMWYyMDIwO30jZ2VNZXJtYWlkT3V0cHV0LTE2OTYxMjU3OTk5NjYgLmNsYXNzVGl0bGV7Zm9udC13ZWlnaHQ6Ym9sZGVyO30jZ2VNZXJtYWlkT3V0cHV0LTE2OTYxMjU3OTk5NjYgLm5vZGUgcmVjdCwjZ2VNZXJtYWlkT3V0cHV0LTE2OTYxMjU3OTk5NjYgLm5vZGUgY2lyY2xlLCNnZU1lcm1haWRPdXRwdXQtMTY5NjEyNTc5OTk2NiAubm9kZSBlbGxpcHNlLCNnZU1lcm1haWRPdXRwdXQtMTY5NjEyNTc5OTk2NiAubm9kZSBwb2x5Z29uLCNnZU1lcm1haWRPdXRwdXQtMTY5NjEyNTc5OTk2NiAubm9kZSBwYXRoe2ZpbGw6IzFmMjAyMDtzdHJva2U6IzgxQjFEQjtzdHJva2Utd2lkdGg6MXB4O30jZ2VNZXJtYWlkT3V0cHV0LTE2OTYxMjU3OTk5NjYgLmRpdmlkZXJ7c3Ryb2tlOiM4MUIxREI7c3Ryb2tlOjE7fSNnZU1lcm1haWRPdXRwdXQtMTY5NjEyNTc5OTk2NiBnLmNsaWNrYWJsZXtjdXJzb3I6cG9pbnRlcjt9I2dlTWVybWFpZE91dHB1dC0xNjk2MTI1Nzk5OTY2IGcuY2xhc3NHcm91cCByZWN0e2ZpbGw6IzFmMjAyMDtzdHJva2U6IzgxQjFEQjt9I2dlTWVybWFpZE91dHB1dC0xNjk2MTI1Nzk5OTY2IGcuY2xhc3NHcm91cCBsaW5le3N0cm9rZTojODFCMURCO3N0cm9rZS13aWR0aDoxO30jZ2VNZXJtYWlkT3V0cHV0LTE2OTYxMjU3OTk5NjYgLmNsYXNzTGFiZWwgLmJveHtzdHJva2U6bm9uZTtzdHJva2Utd2lkdGg6MDtmaWxsOiMxZjIwMjA7b3BhY2l0eTowLjU7fSNnZU1lcm1haWRPdXRwdXQtMTY5NjEyNTc5OTk2NiAuY2xhc3NMYWJlbCAubGFiZWx7ZmlsbDojODFCMURCO2ZvbnQtc2l6ZToxMHB4O30jZ2VNZXJtYWlkT3V0cHV0LTE2OTYxMjU3OTk5NjYgLnJlbGF0aW9ue3N0cm9rZTpsaWdodGdyZXk7c3Ryb2tlLXdpZHRoOjE7ZmlsbDpub25lO30jZ2VNZXJtYWlkT3V0cHV0LTE2OTYxMjU3OTk5NjYgLmRhc2hlZC1saW5le3N0cm9rZS1kYXNoYXJyYXk6Mzt9I2dlTWVybWFpZE91dHB1dC0xNjk2MTI1Nzk5OTY2ICNjb21wb3NpdGlvblN0YXJ0LCNnZU1lcm1haWRPdXRwdXQtMTY5NjEyNTc5OTk2NiAuY29tcG9zaXRpb257ZmlsbDpsaWdodGdyZXkhaW1wb3J0YW50O3N0cm9rZTpsaWdodGdyZXkhaW1wb3J0YW50O3N0cm9rZS13aWR0aDoxO30jZ2VNZXJtYWlkT3V0cHV0LTE2OTYxMjU3OTk5NjYgI2NvbXBvc2l0aW9uRW5kLCNnZU1lcm1haWRPdXRwdXQtMTY5NjEyNTc5OTk2NiAuY29tcG9zaXRpb257ZmlsbDpsaWdodGdyZXkhaW1wb3J0YW50O3N0cm9rZTpsaWdodGdyZXkhaW1wb3J0YW50O3N0cm9rZS13aWR0aDoxO30jZ2VNZXJtYWlkT3V0cHV0LTE2OTYxMjU3OTk5NjYgI2RlcGVuZGVuY3lTdGFydCwjZ2VNZXJtYWlkT3V0cHV0LTE2OTYxMjU3OTk5NjYgLmRlcGVuZGVuY3l7ZmlsbDpsaWdodGdyZXkhaW1wb3J0YW50O3N0cm9rZTpsaWdodGdyZXkhaW1wb3J0YW50O3N0cm9rZS13aWR0aDoxO30jZ2VNZXJtYWlkT3V0cHV0LTE2OTYxMjU3OTk5NjYgI2RlcGVuZGVuY3lTdGFydCwjZ2VNZXJtYWlkT3V0cHV0LTE2OTYxMjU3OTk5NjYgLmRlcGVuZGVuY3l7ZmlsbDpsaWdodGdyZXkhaW1wb3J0YW50O3N0cm9rZTpsaWdodGdyZXkhaW1wb3J0YW50O3N0cm9rZS13aWR0aDoxO30jZ2VNZXJtYWlkT3V0cHV0LTE2OTYxMjU3OTk5NjYgI2V4dGVuc2lvblN0YXJ0LCNnZU1lcm1haWRPdXRwdXQtMTY5NjEyNTc5OTk2NiAuZXh0ZW5zaW9ue2ZpbGw6bGlnaHRncmV5IWltcG9ydGFudDtzdHJva2U6bGlnaHRncmV5IWltcG9ydGFudDtzdHJva2Utd2lkdGg6MTt9I2dlTWVybWFpZE91dHB1dC0xNjk2MTI1Nzk5OTY2ICNleHRlbnNpb25FbmQsI2dlTWVybWFpZE91dHB1dC0xNjk2MTI1Nzk5OTY2IC5leHRlbnNpb257ZmlsbDpsaWdodGdyZXkhaW1wb3J0YW50O3N0cm9rZTpsaWdodGdyZXkhaW1wb3J0YW50O3N0cm9rZS13aWR0aDoxO30jZ2VNZXJtYWlkT3V0cHV0LTE2OTYxMjU3OTk5NjYgI2FnZ3JlZ2F0aW9uU3RhcnQsI2dlTWVybWFpZE91dHB1dC0xNjk2MTI1Nzk5OTY2IC5hZ2dyZWdhdGlvbntmaWxsOiMxZjIwMjAhaW1wb3J0YW50O3N0cm9rZTpsaWdodGdyZXkhaW1wb3J0YW50O3N0cm9rZS13aWR0aDoxO30jZ2VNZXJtYWlkT3V0cHV0LTE2OTYxMjU3OTk5NjYgI2FnZ3JlZ2F0aW9uRW5kLCNnZU1lcm1haWRPdXRwdXQtMTY5NjEyNTc5OTk2NiAuYWdncmVnYXRpb257ZmlsbDojMWYyMDIwIWltcG9ydGFudDtzdHJva2U6bGlnaHRncmV5IWltcG9ydGFudDtzdHJva2Utd2lkdGg6MTt9I2dlTWVybWFpZE91dHB1dC0xNjk2MTI1Nzk5OTY2IC5lZGdlVGVybWluYWxze2ZvbnQtc2l6ZToxMXB4O30jZ2VNZXJtYWlkT3V0cHV0LTE2OTYxMjU3OTk5NjYgOnJvb3R7LS1tZXJtYWlkLWZvbnQtZmFtaWx5OiJ0cmVidWNoZXQgbXMiLHZlcmRhbmEsYXJpYWwsc2Fucy1zZXJpZjt9PC9zdHlsZT48ZyB0cmFuc2Zvcm09InRyYW5zbGF0ZSgwLCAwKSI+PGRlZnM+PG1hcmtlciBvcmllbnQ9ImF1dG8iIG1hcmtlckhlaWdodD0iMjQwIiBtYXJrZXJXaWR0aD0iMTkwIiByZWZZPSI3IiByZWZYPSIwIiBjbGFzcz0ibWFya2VyIGFnZ3JlZ2F0aW9uIGNsYXNzRGlhZ3JhbSIgaWQ9ImNsYXNzRGlhZ3JhbS1hZ2dyZWdhdGlvblN0YXJ0Ij48cGF0aCBkPSJNIDE4LDcgTDksMTMgTDEsNyBMOSwxIFoiPjwvcGF0aD48L21hcmtlcj48L2RlZnM+PGRlZnM+PG1hcmtlciBvcmllbnQ9ImF1dG8iIG1hcmtlckhlaWdodD0iMjgiIG1hcmtlcldpZHRoPSIyMCIgcmVmWT0iNyIgcmVmWD0iMTkiIGNsYXNzPSJtYXJrZXIgYWdncmVnYXRpb24gY2xhc3NEaWFncmFtIiBpZD0iY2xhc3NEaWFncmFtLWFnZ3JlZ2F0aW9uRW5kIj48cGF0aCBkPSJNIDE4LDcgTDksMTMgTDEsNyBMOSwxIFoiPjwvcGF0aD48L21hcmtlcj48L2RlZnM+PGRlZnM+PG1hcmtlciBvcmllbnQ9ImF1dG8iIG1hcmtlckhlaWdodD0iMjQwIiBtYXJrZXJXaWR0aD0iMTkwIiByZWZZPSI3IiByZWZYPSIwIiBjbGFzcz0ibWFya2VyIGV4dGVuc2lvbiBjbGFzc0RpYWdyYW0iIGlkPSJjbGFzc0RpYWdyYW0tZXh0ZW5zaW9uU3RhcnQiPjxwYXRoIGQ9Ik0gMSw3IEwxOCwxMyBWIDEgWiI+PC9wYXRoPjwvbWFya2VyPjwvZGVmcz48ZGVmcz48bWFya2VyIG9yaWVudD0iYXV0byIgbWFya2VySGVpZ2h0PSIyOCIgbWFya2VyV2lkdGg9IjIwIiByZWZZPSI3IiByZWZYPSIxOSIgY2xhc3M9Im1hcmtlciBleHRlbnNpb24gY2xhc3NEaWFncmFtIiBpZD0iY2xhc3NEaWFncmFtLWV4dGVuc2lvbkVuZCI+PHBhdGggZD0iTSAxLDEgViAxMyBMMTgsNyBaIj48L3BhdGg+PC9tYXJrZXI+PC9kZWZzPjxkZWZzPjxtYXJrZXIgb3JpZW50PSJhdXRvIiBtYXJrZXJIZWlnaHQ9IjI0MCIgbWFya2VyV2lkdGg9IjE5MCIgcmVmWT0iNyIgcmVmWD0iMCIgY2xhc3M9Im1hcmtlciBjb21wb3NpdGlvbiBjbGFzc0RpYWdyYW0iIGlkPSJjbGFzc0RpYWdyYW0tY29tcG9zaXRpb25TdGFydCI+PHBhdGggZD0iTSAxOCw3IEw5LDEzIEwxLDcgTDksMSBaIj48L3BhdGg+PC9tYXJrZXI+PC9kZWZzPjxkZWZzPjxtYXJrZXIgb3JpZW50PSJhdXRvIiBtYXJrZXJIZWlnaHQ9IjI4IiBtYXJrZXJXaWR0aD0iMjAiIHJlZlk9IjciIHJlZlg9IjE5IiBjbGFzcz0ibWFya2VyIGNvbXBvc2l0aW9uIGNsYXNzRGlhZ3JhbSIgaWQ9ImNsYXNzRGlhZ3JhbS1jb21wb3NpdGlvbkVuZCI+PHBhdGggZD0iTSAxOCw3IEw5LDEzIEwxLDcgTDksMSBaIj48L3BhdGg+PC9tYXJrZXI+PC9kZWZzPjxkZWZzPjxtYXJrZXIgb3JpZW50PSJhdXRvIiBtYXJrZXJIZWlnaHQ9IjI0MCIgbWFya2VyV2lkdGg9IjE5MCIgcmVmWT0iNyIgcmVmWD0iMCIgY2xhc3M9Im1hcmtlciBkZXBlbmRlbmN5IGNsYXNzRGlhZ3JhbSIgaWQ9ImNsYXNzRGlhZ3JhbS1kZXBlbmRlbmN5U3RhcnQiPjxwYXRoIGQ9Ik0gNSw3IEw5LDEzIEwxLDcgTDksMSBaIj48L3BhdGg+PC9tYXJrZXI+PC9kZWZzPjxkZWZzPjxtYXJrZXIgb3JpZW50PSJhdXRvIiBtYXJrZXJIZWlnaHQ9IjI4IiBtYXJrZXJXaWR0aD0iMjAiIHJlZlk9IjciIHJlZlg9IjE5IiBjbGFzcz0ibWFya2VyIGRlcGVuZGVuY3kgY2xhc3NEaWFncmFtIiBpZD0iY2xhc3NEaWFncmFtLWRlcGVuZGVuY3lFbmQiPjxwYXRoIGQ9Ik0gMTgsNyBMOSwxMyBMMTQsNyBMOSwxIFoiPjwvcGF0aD48L21hcmtlcj48L2RlZnM+PGcgY2xhc3M9InJvb3QiPjxnIGNsYXNzPSJjbHVzdGVycyI+PC9nPjxnIGNsYXNzPSJlZGdlUGF0aHMiPjxwYXRoIG1hcmtlci1zdGFydD0idXJsKCNjbGFzc0RpYWdyYW0tYWdncmVnYXRpb25TdGFydCkiIHN0eWxlPSJmaWxsOm5vbmUiIGNsYXNzPSJlZGdlLXBhdHRlcm4tc29saWQgcmVsYXRpb24iIGlkPSJpZDEiIGQ9Ik0xNjg0LjMzMDA3NDMxMDMwMjcsNTM3Ljc5OTk5OTIzNzA2MDVMMTY4NC4zMzAwNzQzMTAzMDI3LDU0My44MzMzMzI2OTc1NTA0QzE2ODQuMzMwMDc0MzEwMzAyNyw1NDkuODY2NjY2MTU4MDQwNCwxNjg0LjMzMDA3NDMxMDMwMjcsNTYxLjkzMzMzMzA3OTAyMDEsMTY4NC4zMzAwNzQzMTAzMDI3LDU4MS40NjY2NjU5MDM3MjcyQzE2ODQuMzMwMDc0MzEwMzAyNyw2MDAuOTk5OTk4NzI4NDM0MiwxNjg0LjMzMDA3NDMxMDMwMjcsNjI3Ljk5OTk5NzQ1Njg2ODUsMTY4NC4zMzAwNzQzMTAzMDI3LDY0MS40OTk5OTY4MjEwODU2TDE2ODQuMzMwMDc0MzEwMzAyNyw2NTQuOTk5OTk2MTg1MzAyNyI+PC9wYXRoPjxwYXRoIG1hcmtlci1zdGFydD0idXJsKCNjbGFzc0RpYWdyYW0tYWdncmVnYXRpb25TdGFydCkiIHN0eWxlPSJmaWxsOm5vbmUiIGNsYXNzPSJlZGdlLXBhdHRlcm4tc29saWQgcmVsYXRpb24iIGlkPSJpZDIiIGQ9Ik04NjIuNDI0MjA5NTk0NzI2Niw1NDlMODYyLjQyNDIwOTU5NDcyNjYsNTUzLjE2NjY2NjY2NjY2NjZDODYyLjQyNDIwOTU5NDcyNjYsNTU3LjMzMzMzMzMzMzMzMzQsODYyLjQyNDIwOTU5NDcyNjYsNTY1LjY2NjY2NjY2NjY2NjYsODkwLjkwODUxODQ3MzMwNzMsNTgxLjU1NzU4NjE3NzE1MzdDOTE5LjM5MjgyNzM1MTg4ODEsNTk3LjQ0ODUwNTY4NzY0MDcsOTc2LjM2MTQ0NTEwOTA0OTQsNjIwLjg5NzAxMTM3NTI4MTMsMTAwNC44NDU3NTM5ODc2MzAyLDYzMi42MjEyNjQyMTkxMDE3TDEwMzMuMzMwMDYyODY2MjExLDY0NC4zNDU1MTcwNjI5MjIiPjwvcGF0aD48cGF0aCBtYXJrZXItc3RhcnQ9InVybCgjY2xhc3NEaWFncmFtLWFnZ3JlZ2F0aW9uU3RhcnQpIiBzdHlsZT0iZmlsbDpub25lIiBjbGFzcz0iZWRnZS1wYXR0ZXJuLXNvbGlkIHJlbGF0aW9uIiBpZD0iaWQzIiBkPSJNMTIyNC41NTUwNjg5Njk3MjY2LDY1Ny41ODQxNTg4MjY1NTdMMTI2MC4zMDIwNzQ1MzgzMzY3LDY0Ny44MjAxMzIzNTU0NjQxQzEyOTYuMDQ5MDgwMTA2OTQ3LDYzOC4wNTYxMDU4ODQzNzEzLDEzNjcuNTQzMDkxMjQ0MTY3Nyw2MTguNTI4MDUyOTQyMTg1NywxNDEyLjIyNjg0ODIwNDkzMDUsNjA4Ljc2NDAyNjQ3MTA5MjhDMTQ1Ni45MTA2MDUxNjU2OTM0LDU5OSwxNDc0Ljc4NDEwNzk0OTk5ODUsNTk5LDE0OTIuNjU3NjEwNzM0MzAzNyw2MTMuMTE2NjY2MTU4MDQwNEMxNTEwLjUzMTExMzUxODYwODcsNjI3LjIzMzMzMjMxNjA4MDcsMTUyOC40MDQ2MTYzMDI5MTQsNjU1LjQ2NjY2NDYzMjE2MTUsMTUyOC40MDQ2MTYzMDI5MTQsNjgzLjY5OTk5Njk0ODI0MjJDMTUyOC40MDQ2MTYzMDI5MTQsNzExLjkzMzMyOTI2NDMyMjksMTUxMC41MzExMTM1MTg2MDg3LDc0MC4xNjY2NjE1ODA0MDM3LDE0OTIuNjU3NjEwNzM0MzAzNyw3NTQuMjgzMzI3NzM4NDQ0QzE0NzQuNzg0MTA3OTQ5OTk4NSw3NjguMzk5OTkzODk2NDg0NCwxNDU2LjkxMDYwNTE2NTY5MzQsNzY4LjM5OTk5Mzg5NjQ4NDQsMTQxMi4yMjY4NDgyMDQ5MzA1LDc1OC42MzU5Njc0MjUzOTE2QzEzNjcuNTQzMDkxMjQ0MTY3Nyw3NDguODcxOTQwOTU0Mjk4NywxMjk2LjA0OTA4MDEwNjk0Nyw3MjkuMzQzODg4MDEyMTEzLDEyNjAuMzAyMDc0NTM4MzM2Nyw3MTkuNTc5ODYxNTQxMDIwM0wxMjI0LjU1NTA2ODk2OTcyNjYsNzA5LjgxNTgzNTA2OTkyNzQiPjwvcGF0aD48cGF0aCBtYXJrZXItc3RhcnQ9InVybCgjY2xhc3NEaWFncmFtLWFnZ3JlZ2F0aW9uU3RhcnQpIiBzdHlsZT0iZmlsbDpub25lIiBjbGFzcz0iZWRnZS1wYXR0ZXJuLXNvbGlkIHJlbGF0aW9uIiBpZD0iaWQ0IiBkPSJNMTIyNC41NTUwNjg5Njk3MjY2LDY1OS4xNjY0ODM1OTk0MjI3TDEyNjMuNjM1NDA3ODcxNjcwMiw2NDkuMTM4NzM2MzMyODUyMkMxMzAyLjcxNTc0Njc3MzYxMzgsNjM5LjExMDk4OTA2NjI4MTgsMTM4MC44NzY0MjQ1Nzc1MDEsNjE5LjA1NTQ5NDUzMzE0MDksMTQyOS43MjY4NDgyMDQ5MzA1LDYwOS4wMjc3NDcyNjY1NzA0QzE0NzguNTc3MjcxODMyMzU5OSw1OTksMTQ5OC4xMTc0NDEyODMzMzE4LDU5OSwxNTE3LjY1NzYxMDczNDMwMzcsNjEzLjExNjY2NjE1ODA0MDRDMTUzNy4xOTc3ODAxODUyNzU0LDYyNy4yMzMzMzIzMTYwODA3LDE1NTYuNzM3OTQ5NjM2MjQ3Myw2NTUuNDY2NjY0NjMyMTYxNSwxNTU2LjczNzk0OTYzNjI0NzMsNjgzLjY5OTk5Njk0ODI0MjJDMTU1Ni43Mzc5NDk2MzYyNDczLDcxMS45MzMzMjkyNjQzMjI5LDE1MzcuMTk3NzgwMTg1Mjc1NCw3NDAuMTY2NjYxNTgwNDAzNywxNTE3LjY1NzYxMDczNDMwMzcsNzU0LjI4MzMyNzczODQ0NEMxNDk4LjExNzQ0MTI4MzMzMTgsNzY4LjM5OTk5Mzg5NjQ4NDQsMTQ3OC41NzcyNzE4MzIzNTk5LDc2OC4zOTk5OTM4OTY0ODQ0LDE0MjkuNzI2ODQ4MjA0OTMwNSw3NTguMzcyMjQ2NjI5OTE0QzEzODAuODc2NDI0NTc3NTAxLDc0OC4zNDQ0OTkzNjMzNDM1LDEzMDIuNzE1NzQ2NzczNjEzOCw3MjguMjg5MDA0ODMwMjAyNSwxMjYzLjYzNTQwNzg3MTY3MDIsNzE4LjI2MTI1NzU2MzYzMjJMMTIyNC41NTUwNjg5Njk3MjY2LDcwOC4yMzM1MTAyOTcwNjE3Ij48L3BhdGg+PHBhdGggbWFya2VyLXN0YXJ0PSJ1cmwoI2NsYXNzRGlhZ3JhbS1leHRlbnNpb25TdGFydCkiIHN0eWxlPSJmaWxsOm5vbmUiIGNsYXNzPSJlZGdlLXBhdHRlcm4tZGFzaGVkIHJlbGF0aW9uIiBpZD0iaWQ1IiBkPSJNMTQzNy43OTY4NjczNzA2MDU1LDUxNS40MDAwMDE1MjU4Nzg5TDE0MzcuNzk2ODY3MzcwNjA1NSw1MjUuMTY2NjY3OTM4MjMyNEMxNDM3Ljc5Njg2NzM3MDYwNTUsNTM0LjkzMzMzNDM1MDU4NTksMTQzNy43OTY4NjczNzA2MDU1LDU1NC40NjY2NjcxNzUyOTMsMTQwMi4yNTY1Njc2MzcxMjU3LDU3Ni44NTY2NjY4MzU2MDU5QzEzNjYuNzE2MjY3OTAzNjQ1OCw1OTkuMjQ2NjY2NDk1OTE4OCwxMjk1LjYzNTY2ODQzNjY4NjMsNjI0LjQ5MzMzMjk5MTgzNzYsMTI2MC4wOTUzNjg3MDMyMDYzLDYzNy4xMTY2NjYyMzk3OTdMMTIyNC41NTUwNjg5Njk3MjY2LDY0OS43Mzk5OTk0ODc3NTY0Ij48L3BhdGg+PHBhdGggbWFya2VyLXN0YXJ0PSJ1cmwoI2NsYXNzRGlhZ3JhbS1leHRlbnNpb25TdGFydCkiIHN0eWxlPSJmaWxsOm5vbmUiIGNsYXNzPSJlZGdlLXBhdHRlcm4tc29saWQgcmVsYXRpb24iIGlkPSJpZDYiIGQ9Ik01NzUuNTIwMzAxODE4ODQ3Nyw4MC41NjkyMDQ0MDI4NzA1NUw0OTIuMzEzMjcxODQwNDEzNCw5My40MDc2NzAwODE0MTIzMkM0MDkuMTA2MjQxODYxOTc5MiwxMDYuMjQ2MTM1NzU5OTU0MDcsMjQyLjY5MjE4MTkwNTExMDcsMTMxLjkyMzA2NzExNzAzNzYsMTU5LjQ4NTE1MTkyNjY3NjQyLDE1OC4yNjE1MzI3OTU1NzkzNEM3Ni4yNzgxMjE5NDgyNDIxOSwxODQuNTk5OTk4NDc0MTIxMSw3Ni4yNzgxMjE5NDgyNDIxOSwyMTEuNTk5OTk4NDc0MTIxMSw3Ni4yNzgxMjE5NDgyNDIxOSwyMjUuMDk5OTk4NDc0MTIxMUw3Ni4yNzgxMjE5NDgyNDIxOSwyMzguNTk5OTk4NDc0MTIxMSI+PC9wYXRoPjxwYXRoIG1hcmtlci1zdGFydD0idXJsKCNjbGFzc0RpYWdyYW0tZXh0ZW5zaW9uU3RhcnQpIiBzdHlsZT0iZmlsbDpub25lIiBjbGFzcz0iZWRnZS1wYXR0ZXJuLXNvbGlkIHJlbGF0aW9uIiBpZD0iaWQ3IiBkPSJNNTc1LjUyMDMwMTgxODg0NzcsODUuNjIwODI2NzYwMjYwMTlMNTIzLjQwNTk3OTE1NjQ5NDEsOTcuNjE3MzU1Mzc5MjM3QzQ3MS4yOTE2NTY0OTQxNDA2LDEwOS42MTM4ODM5OTgyMTM4MSwzNjcuMDYzMDExMTY5NDMzNiwxMzMuNjA2OTQxMjM2MTY3NDQsMzE0Ljk0ODY4ODUwNzA4MDEsMTU5LjEwMzQ2OTg1NTE0NDI4QzI2Mi44MzQzNjU4NDQ3MjY1NiwxODQuNTk5OTk4NDc0MTIxMSwyNjIuODM0MzY1ODQ0NzI2NTYsMjExLjU5OTk5ODQ3NDEyMTEsMjYyLjgzNDM2NTg0NDcyNjU2LDIyNS4wOTk5OTg0NzQxMjExTDI2Mi44MzQzNjU4NDQ3MjY1NiwyMzguNTk5OTk4NDc0MTIxMSI+PC9wYXRoPjxwYXRoIG1hcmtlci1zdGFydD0idXJsKCNjbGFzc0RpYWdyYW0tZXh0ZW5zaW9uU3RhcnQpIiBzdHlsZT0iZmlsbDpub25lIiBjbGFzcz0iZWRnZS1wYXR0ZXJuLXNvbGlkIHJlbGF0aW9uIiBpZD0iaWQ4IiBkPSJNNTc4LjczMDI0Mzc2NTYxNjQsOTlMNTU3LjE3MzYzODA5NDg4MjEsMTA4Ljc2NjY2NjQxMjM1MzUyQzUzNS42MTcwMzI0MjQxNDc5LDExOC41MzMzMzI4MjQ3MDcwMyw0OTIuNTAzODIxMDgyNjc5NCwxMzguMDY2NjY1NjQ5NDE0MDYsNDcwLjk0NzIxNTQxMTk0NTE0LDE2MS4zMzMzMzIwNjE3Njc1OEM0NDkuMzkwNjA5NzQxMjEwOTQsMTg0LjU5OTk5ODQ3NDEyMTEsNDQ5LjM5MDYwOTc0MTIxMDk0LDIxMS41OTk5OTg0NzQxMjExLDQ0OS4zOTA2MDk3NDEyMTA5NCwyMjUuMDk5OTk4NDc0MTIxMUw0NDkuMzkwNjA5NzQxMjEwOTQsMjM4LjU5OTk5ODQ3NDEyMTEiPjwvcGF0aD48cGF0aCBtYXJrZXItc3RhcnQ9InVybCgjY2xhc3NEaWFncmFtLWFnZ3JlZ2F0aW9uU3RhcnQpIiBzdHlsZT0iZmlsbDpub25lIiBjbGFzcz0iZWRnZS1wYXR0ZXJuLXNvbGlkIHJlbGF0aW9uIiBpZD0iaWQ5IiBkPSJNMTM5NC44OTY4NjU4NDQ3MjY2LDM0Ni41OTM2NDEyMDUyNTc2TDEzNzcuODk2NzM2MTQ1MDE5NSwzNTUuMzk0NzAxMjU4Njk0NUMxMzYwLjg5NjYwNjQ0NTMxMjUsMzY0LjE5NTc2MTMxMjEzMTQsMTMyNi44OTYzNDcwNDU4OTg0LDM4MS43OTc4ODE0MTkwMDUxNCwxMzA5Ljg5NjIxNzM0NjE5MTQsNDAwLjM2NTYwNzg4NDc5NTU3QzEyOTIuODk2MDg3NjQ2NDg0NCw0MTguOTMzMzM0MzUwNTg1OTQsMTI5Mi44OTYwODc2NDY0ODQ0LDQzOC40NjY2NjcxNzUyOTI5NywxMjkyLjg5NjA4NzY0NjQ4NDQsNDQ4LjIzMzMzMzU4NzY0NjVMMTI5Mi44OTYwODc2NDY0ODQ0LDQ1OCI+PC9wYXRoPjxwYXRoIG1hcmtlci1zdGFydD0idXJsKCNjbGFzc0RpYWdyYW0tYWdncmVnYXRpb25TdGFydCkiIHN0eWxlPSJmaWxsOm5vbmUiIGNsYXNzPSJlZGdlLXBhdHRlcm4tc29saWQgcmVsYXRpb24iIGlkPSJpZDEwIiBkPSJNMTY1MS42NzgzOTY3MTEyMjA4LDM3NC40MDAwMDE1MjU4Nzg5TDE2NTcuMTIwMzQyOTc3NzM0NSwzNzguNTY2NjY4MTkyNTQ1NkMxNjYyLjU2MjI4OTI0NDI0OCwzODIuNzMzMzM0ODU5MjEyMiwxNjczLjQ0NjE4MTc3NzI3NTMsMzkxLjA2NjY2ODE5MjU0NTYsMTY3OC44ODgxMjgwNDM3ODksNDAxLjI2NjY2ODMxOTcwMjE1QzE2ODQuMzMwMDc0MzEwMzAyNyw0MTEuNDY2NjY4NDQ2ODU4NywxNjg0LjMzMDA3NDMxMDMwMjcsNDIzLjUzMzMzNTM2NzgzODU2LDE2ODQuMzMwMDc0MzEwMzAyNyw0MjkuNTY2NjY4ODI4MzI4NDNMMTY4NC4zMzAwNzQzMTAzMDI3LDQzNS42MDAwMDIyODg4MTgzNiI+PC9wYXRoPjxwYXRoIG1hcmtlci1zdGFydD0idXJsKCNjbGFzc0RpYWdyYW0tZXh0ZW5zaW9uU3RhcnQpIiBzdHlsZT0iZmlsbDpub25lIiBjbGFzcz0iZWRnZS1wYXR0ZXJuLXNvbGlkIHJlbGF0aW9uIiBpZD0iaWQxMSIgZD0iTTE1MjYuNDI2NTU5NDQ4MjQyMiw5OUwxNTI2LjQyNjU1OTQ0ODI0MjIsMTA4Ljc2NjY2NjQxMjM1MzUyQzE1MjYuNDI2NTU5NDQ4MjQyMiwxMTguNTMzMzMyODI0NzA3MDMsMTUyNi40MjY1NTk0NDgyNDIyLDEzOC4wNjY2NjU2NDk0MTQwNiwxNTI2LjQyNjU1OTQ0ODI0MjIsMTUxLjk5OTk5ODcyODQzNDI0QzE1MjYuNDI2NTU5NDQ4MjQyMiwxNjUuOTMzMzMxODA3NDU0NDQsMTUyNi40MjY1NTk0NDgyNDIyLDE3NC4yNjY2NjUxNDA3ODc3NSwxNTI2LjQyNjU1OTQ0ODI0MjIsMTc4LjQzMzMzMTgwNzQ1NDQ0TDE1MjYuNDI2NTU5NDQ4MjQyMiwxODIuNTk5OTk4NDc0MTIxMSI+PC9wYXRoPjxwYXRoIG1hcmtlci1zdGFydD0idXJsKCNjbGFzc0RpYWdyYW0tYWdncmVnYXRpb25TdGFydCkiIHN0eWxlPSJmaWxsOm5vbmUiIGNsYXNzPSJlZGdlLXBhdHRlcm4tc29saWQgcmVsYXRpb24iIGlkPSJpZDEyIiBkPSJNNjQyLjA3NTc2NzUxNzA4OTgsMzI5LjU5OTk5ODQ3NDEyMTFMNjQyLjA3NTc2NzUxNzA4OTgsMzQxLjIzMzMzMjMxNjA4MDc1QzY0Mi4wNzU3Njc1MTcwODk4LDM1Mi44NjY2NjYxNTgwNDAzNSw2NDIuMDc1NzY3NTE3MDg5OCwzNzYuMTMzMzMzODQxOTU5NjUsNjY1LjM5NzkwMzQ0MjM4MjgsMzk3LjAwNjY4MDU4OTMzMDg3QzY4OC43MjAwMzkzNjc2NzU4LDQxNy44ODAwMjczMzY3MDIxLDczNS4zNjQzMTEyMTgyNjE3LDQzNi4zNjAwNTMxNDc1MjUyLDc1OC42ODY0NDcxNDM1NTQ3LDQ0NS42MDAwNjYwNTI5MzY4TDc4Mi4wMDg1ODMwNjg4NDc3LDQ1NC44NDAwNzg5NTgzNDg0Ij48L3BhdGg+PHBhdGggbWFya2VyLXN0YXJ0PSJ1cmwoI2NsYXNzRGlhZ3JhbS1leHRlbnNpb25TdGFydCkiIHN0eWxlPSJmaWxsOm5vbmUiIGNsYXNzPSJlZGdlLXBhdHRlcm4tc29saWQgcmVsYXRpb24iIGlkPSJpZDEzIiBkPSJNNjQyLjA3NTc2NzUxNzA4OTgsOTlMNjQyLjA3NTc2NzUxNzA4OTgsMTA4Ljc2NjY2NjQxMjM1MzUyQzY0Mi4wNzU3Njc1MTcwODk4LDExOC41MzMzMzI4MjQ3MDcwMyw2NDIuMDc1NzY3NTE3MDg5OCwxMzguMDY2NjY1NjQ5NDE0MDYsNjQyLjA3NTc2NzUxNzA4OTgsMTU5LjQ2NjY2NTkwMzcyNzJDNjQyLjA3NTc2NzUxNzA4OTgsMTgwLjg2NjY2NjE1ODA0MDM3LDY0Mi4wNzU3Njc1MTcwODk4LDIwNC4xMzMzMzM4NDE5NTk2Myw2NDIuMDc1NzY3NTE3MDg5OCwyMTUuNzY2NjY3NjgzOTE5MjhMNjQyLjA3NTc2NzUxNzA4OTgsMjI3LjQwMDAwMTUyNTg3ODkiPjwvcGF0aD48cGF0aCBtYXJrZXItc3RhcnQ9InVybCgjY2xhc3NEaWFncmFtLWFnZ3JlZ2F0aW9uU3RhcnQpIiBzdHlsZT0iZmlsbDpub25lIiBjbGFzcz0iZWRnZS1wYXR0ZXJuLXNvbGlkIHJlbGF0aW9uIiBpZD0iaWQxNCIgZD0iTTg2Mi40MjQyMDk1OTQ3MjY2LDM0MC43OTk5OTkyMzcwNjA1NUw4NjIuNDI0MjA5NTk0NzI2NiwzNTAuNTY2NjY2Mjg1MTk2OTZDODYyLjQyNDIwOTU5NDcyNjYsMzYwLjMzMzMzMzMzMzMzMzMsODYyLjQyNDIwOTU5NDcyNjYsMzc5Ljg2NjY2NzQyOTYwNjE0LDg2Mi40MjQyMDk1OTQ3MjY2LDM5My44MDAwMDExNDQ0MDkyQzg2Mi40MjQyMDk1OTQ3MjY2LDQwNy43MzMzMzQ4NTkyMTIyLDg2Mi40MjQyMDk1OTQ3MjY2LDQxNi4wNjY2NjgxOTI1NDU2LDg2Mi40MjQyMDk1OTQ3MjY2LDQyMC4yMzMzMzQ4NTkyMTIyTDg2Mi40MjQyMDk1OTQ3MjY2LDQyNC40MDAwMDE1MjU4Nzg5Ij48L3BhdGg+PHBhdGggbWFya2VyLXN0YXJ0PSJ1cmwoI2NsYXNzRGlhZ3JhbS1leHRlbnNpb25TdGFydCkiIHN0eWxlPSJmaWxsOm5vbmUiIGNsYXNzPSJlZGdlLXBhdHRlcm4tc29saWQgcmVsYXRpb24iIGlkPSJpZDE1IiBkPSJNNzA4LjYzMTIzMzIxNTMzMiw5Ni42Njg2NTQ0OTAwNTEwN0w3MzQuMjYzMzk1OTQ1MjMxMSwxMDYuODIzODc4NDg3Mzk2MDdDNzU5Ljg5NTU1ODY3NTEzMDIsMTE2Ljk3OTEwMjQ4NDc0MTA4LDgxMS4xNTk4ODQxMzQ5MjgzLDEzNy4yODk1NTA0Nzk0MzEwOSw4MzYuNzkyMDQ2ODY0ODI3NSwxNTcuMjExNDQxNTI0OTEyNUM4NjIuNDI0MjA5NTk0NzI2NiwxNzcuMTMzMzMyNTcwMzkzOSw4NjIuNDI0MjA5NTk0NzI2NiwxOTYuNjY2NjY2NjY2NjY2NjYsODYyLjQyNDIwOTU5NDcyNjYsMjA2LjQzMzMzMzcxNDgwMzA3TDg2Mi40MjQyMDk1OTQ3MjY2LDIxNi4yMDAwMDA3NjI5Mzk0NSI+PC9wYXRoPjxwYXRoIG1hcmtlci1zdGFydD0idXJsKCNjbGFzc0RpYWdyYW0tZXh0ZW5zaW9uU3RhcnQpIiBzdHlsZT0iZmlsbDpub25lIiBjbGFzcz0iZWRnZS1wYXR0ZXJuLXNvbGlkIHJlbGF0aW9uIiBpZD0iaWQxNiIgZD0iTTcwOC42MzEyMzMyMTUzMzIsODMuNjcwMjcxNTU4MzA0NUw3NjkuOTY2NjUwNjQ0OTM4MSw5NS45OTE4OTI3MTA5NDA2QzgzMS4zMDIwNjgwNzQ1NDQzLDEwOC4zMTM1MTM4NjM1NzY3LDk1My45NzI5MDI5MzM3NTY1LDEzMi45NTY3NTYxNjg4NDg5LDEwMTUuMzA4MzIwMzYzMzYyNywxNTYuOTExNzExMTYzNDQ0NjRDMTA3Ni42NDM3Mzc3OTI5Njg4LDE4MC44NjY2NjYxNTgwNDAzNywxMDc2LjY0MzczNzc5Mjk2ODgsMjA0LjEzMzMzMzg0MTk1OTYzLDEwNzYuNjQzNzM3NzkyOTY4OCwyMTUuNzY2NjY3NjgzOTE5MjhMMTA3Ni42NDM3Mzc3OTI5Njg4LDIyNy40MDAwMDE1MjU4Nzg5Ij48L3BhdGg+PHBhdGggbWFya2VyLXN0YXJ0PSJ1cmwoI2NsYXNzRGlhZ3JhbS1hZ2dyZWdhdGlvblN0YXJ0KSIgc3R5bGU9ImZpbGw6bm9uZSIgY2xhc3M9ImVkZ2UtcGF0dGVybi1zb2xpZCByZWxhdGlvbiIgaWQ9ImlkMTciIGQ9Ik0xNzg2LjQ2NzE5MzYwMzUxNTYsMTIxLjM5OTk5NzcxMTE4MTY0TDE3ODYuNDY3MTkzNjAzNTE1NiwxMjcuNDMzMzMxMTcxNjcxNTVDMTc4Ni40NjcxOTM2MDM1MTU2LDEzMy40NjY2NjQ2MzIxNjE0NywxNzg2LjQ2NzE5MzYwMzUxNTYsMTQ1LjUzMzMzMTU1MzE0MTI3LDE3ODYuNDY3MTkzNjAzNTE1NiwxNjYuOTMzMzMxODA3NDU0NDRDMTc4Ni40NjcxOTM2MDM1MTU2LDE4OC4zMzMzMzIwNjE3Njc1OCwxNzg2LjQ2NzE5MzYwMzUxNTYsMjE5LjA2NjY2NTY0OTQxNDA2LDE3ODYuNDY3MTkzNjAzNTE1NiwyMzQuNDMzMzMyNDQzMjM3M0wxNzg2LjQ2NzE5MzYwMzUxNTYsMjQ5Ljc5OTk5OTIzNzA2MDU1Ij48L3BhdGg+PHBhdGggbWFya2VyLXN0YXJ0PSJ1cmwoI2NsYXNzRGlhZ3JhbS1leHRlbnNpb25TdGFydCkiIHN0eWxlPSJmaWxsOm5vbmUiIGNsYXNzPSJlZGdlLXBhdHRlcm4tc29saWQgcmVsYXRpb24iIGlkPSJpZDE4IiBkPSJNNzA4LjYzMTIzMzIxNTMzMiw3OS41NTQ1MDg5NDg1NDgwOEw4MDIuMTc3NTg4MTQ0OTM4MSw5Mi41NjIwOTA1MzYxNDM1N0M4OTUuNzIzOTQzMDc0NTQ0MywxMDUuNTY5NjcyMTIzNzM5MDcsMTA4Mi44MTY2NTI5MzM3NTY2LDEzMS41ODQ4MzUyOTg5MzAwNywxMTc2LjM2MzAwNzg2MzM2MjYsMTU5Ljk1OTA4MzY4MDM0ODg0QzEyNjkuOTA5MzYyNzkyOTY4OCwxODguMzMzMzMyMDYxNzY3NTgsMTI2OS45MDkzNjI3OTI5Njg4LDIxOS4wNjY2NjU2NDk0MTQwNiwxMjY5LjkwOTM2Mjc5Mjk2ODgsMjM0LjQzMzMzMjQ0MzIzNzNMMTI2OS45MDkzNjI3OTI5Njg4LDI0OS43OTk5OTkyMzcwNjA1NSI+PC9wYXRoPjwvZz48ZyBjbGFzcz0iZWRnZUxhYmVscyI+PGcgY2xhc3M9ImVkZ2VMYWJlbCI+PGcgdHJhbnNmb3JtPSJ0cmFuc2xhdGUoMCwgMCkiIGNsYXNzPSJsYWJlbCI+PHJlY3QgaGVpZ2h0PSIwIiB3aWR0aD0iMCIgcnk9IjAiIHJ4PSIwIj48L3JlY3Q+PHRleHQgc3R5bGU9IiI+PHRzcGFuIGNsYXNzPSJyb3ciIHg9IjAiIGR5PSIxZW0iIHhtbDpzcGFjZT0icHJlc2VydmUiPjwvdHNwYW4+PC90ZXh0PjwvZz48L2c+PGcgY2xhc3M9ImVkZ2VMYWJlbCI+PGcgdHJhbnNmb3JtPSJ0cmFuc2xhdGUoMCwgMCkiIGNsYXNzPSJsYWJlbCI+PHJlY3QgaGVpZ2h0PSIwIiB3aWR0aD0iMCIgcnk9IjAiIHJ4PSIwIj48L3JlY3Q+PHRleHQgc3R5bGU9IiI+PHRzcGFuIGNsYXNzPSJyb3ciIHg9IjAiIGR5PSIxZW0iIHhtbDpzcGFjZT0icHJlc2VydmUiPjwvdHNwYW4+PC90ZXh0PjwvZz48L2c+PGcgY2xhc3M9ImVkZ2VMYWJlbCI+PGcgdHJhbnNmb3JtPSJ0cmFuc2xhdGUoMCwgMCkiIGNsYXNzPSJsYWJlbCI+PHJlY3QgaGVpZ2h0PSIwIiB3aWR0aD0iMCIgcnk9IjAiIHJ4PSIwIj48L3JlY3Q+PHRleHQgc3R5bGU9IiI+PHRzcGFuIGNsYXNzPSJyb3ciIHg9IjAiIGR5PSIxZW0iIHhtbDpzcGFjZT0icHJlc2VydmUiPjwvdHNwYW4+PC90ZXh0PjwvZz48L2c+PGcgY2xhc3M9ImVkZ2VMYWJlbCI+PGcgdHJhbnNmb3JtPSJ0cmFuc2xhdGUoMCwgMCkiIGNsYXNzPSJsYWJlbCI+PHJlY3QgaGVpZ2h0PSIwIiB3aWR0aD0iMCIgcnk9IjAiIHJ4PSIwIj48L3JlY3Q+PHRleHQgc3R5bGU9IiI+PHRzcGFuIGNsYXNzPSJyb3ciIHg9IjAiIGR5PSIxZW0iIHhtbDpzcGFjZT0icHJlc2VydmUiPjwvdHNwYW4+PC90ZXh0PjwvZz48L2c+PGcgY2xhc3M9ImVkZ2VMYWJlbCI+PGcgdHJhbnNmb3JtPSJ0cmFuc2xhdGUoMCwgMCkiIGNsYXNzPSJsYWJlbCI+PHJlY3QgaGVpZ2h0PSIwIiB3aWR0aD0iMCIgcnk9IjAiIHJ4PSIwIj48L3JlY3Q+PHRleHQgc3R5bGU9IiI+PHRzcGFuIGNsYXNzPSJyb3ciIHg9IjAiIGR5PSIxZW0iIHhtbDpzcGFjZT0icHJlc2VydmUiPjwvdHNwYW4+PC90ZXh0PjwvZz48L2c+PGcgY2xhc3M9ImVkZ2VMYWJlbCI+PGcgdHJhbnNmb3JtPSJ0cmFuc2xhdGUoMCwgMCkiIGNsYXNzPSJsYWJlbCI+PHJlY3QgaGVpZ2h0PSIwIiB3aWR0aD0iMCIgcnk9IjAiIHJ4PSIwIj48L3JlY3Q+PHRleHQgc3R5bGU9IiI+PHRzcGFuIGNsYXNzPSJyb3ciIHg9IjAiIGR5PSIxZW0iIHhtbDpzcGFjZT0icHJlc2VydmUiPjwvdHNwYW4+PC90ZXh0PjwvZz48L2c+PGcgY2xhc3M9ImVkZ2VMYWJlbCI+PGcgdHJhbnNmb3JtPSJ0cmFuc2xhdGUoMCwgMCkiIGNsYXNzPSJsYWJlbCI+PHJlY3QgaGVpZ2h0PSIwIiB3aWR0aD0iMCIgcnk9IjAiIHJ4PSIwIj48L3JlY3Q+PHRleHQgc3R5bGU9IiI+PHRzcGFuIGNsYXNzPSJyb3ciIHg9IjAiIGR5PSIxZW0iIHhtbDpzcGFjZT0icHJlc2VydmUiPjwvdHNwYW4+PC90ZXh0PjwvZz48L2c+PGcgY2xhc3M9ImVkZ2VMYWJlbCI+PGcgdHJhbnNmb3JtPSJ0cmFuc2xhdGUoMCwgMCkiIGNsYXNzPSJsYWJlbCI+PHJlY3QgaGVpZ2h0PSIwIiB3aWR0aD0iMCIgcnk9IjAiIHJ4PSIwIj48L3JlY3Q+PHRleHQgc3R5bGU9IiI+PHRzcGFuIGNsYXNzPSJyb3ciIHg9IjAiIGR5PSIxZW0iIHhtbDpzcGFjZT0icHJlc2VydmUiPjwvdHNwYW4+PC90ZXh0PjwvZz48L2c+PGcgY2xhc3M9ImVkZ2VMYWJlbCI+PGcgdHJhbnNmb3JtPSJ0cmFuc2xhdGUoMCwgMCkiIGNsYXNzPSJsYWJlbCI+PHJlY3QgaGVpZ2h0PSIwIiB3aWR0aD0iMCIgcnk9IjAiIHJ4PSIwIj48L3JlY3Q+PHRleHQgc3R5bGU9IiI+PHRzcGFuIGNsYXNzPSJyb3ciIHg9IjAiIGR5PSIxZW0iIHhtbDpzcGFjZT0icHJlc2VydmUiPjwvdHNwYW4+PC90ZXh0PjwvZz48L2c+PGcgY2xhc3M9ImVkZ2VMYWJlbCI+PGcgdHJhbnNmb3JtPSJ0cmFuc2xhdGUoMCwgMCkiIGNsYXNzPSJsYWJlbCI+PHJlY3QgaGVpZ2h0PSIwIiB3aWR0aD0iMCIgcnk9IjAiIHJ4PSIwIj48L3JlY3Q+PHRleHQgc3R5bGU9IiI+PHRzcGFuIGNsYXNzPSJyb3ciIHg9IjAiIGR5PSIxZW0iIHhtbDpzcGFjZT0icHJlc2VydmUiPjwvdHNwYW4+PC90ZXh0PjwvZz48L2c+PGcgY2xhc3M9ImVkZ2VMYWJlbCI+PGcgdHJhbnNmb3JtPSJ0cmFuc2xhdGUoMCwgMCkiIGNsYXNzPSJsYWJlbCI+PHJlY3QgaGVpZ2h0PSIwIiB3aWR0aD0iMCIgcnk9IjAiIHJ4PSIwIj48L3JlY3Q+PHRleHQgc3R5bGU9IiI+PHRzcGFuIGNsYXNzPSJyb3ciIHg9IjAiIGR5PSIxZW0iIHhtbDpzcGFjZT0icHJlc2VydmUiPjwvdHNwYW4+PC90ZXh0PjwvZz48L2c+PGcgY2xhc3M9ImVkZ2VMYWJlbCI+PGcgdHJhbnNmb3JtPSJ0cmFuc2xhdGUoMCwgMCkiIGNsYXNzPSJsYWJlbCI+PHJlY3QgaGVpZ2h0PSIwIiB3aWR0aD0iMCIgcnk9IjAiIHJ4PSIwIj48L3JlY3Q+PHRleHQgc3R5bGU9IiI+PHRzcGFuIGNsYXNzPSJyb3ciIHg9IjAiIGR5PSIxZW0iIHhtbDpzcGFjZT0icHJlc2VydmUiPjwvdHNwYW4+PC90ZXh0PjwvZz48L2c+PGcgY2xhc3M9ImVkZ2VMYWJlbCI+PGcgdHJhbnNmb3JtPSJ0cmFuc2xhdGUoMCwgMCkiIGNsYXNzPSJsYWJlbCI+PHJlY3QgaGVpZ2h0PSIwIiB3aWR0aD0iMCIgcnk9IjAiIHJ4PSIwIj48L3JlY3Q+PHRleHQgc3R5bGU9IiI+PHRzcGFuIGNsYXNzPSJyb3ciIHg9IjAiIGR5PSIxZW0iIHhtbDpzcGFjZT0icHJlc2VydmUiPjwvdHNwYW4+PC90ZXh0PjwvZz48L2c+PGcgY2xhc3M9ImVkZ2VMYWJlbCI+PGcgdHJhbnNmb3JtPSJ0cmFuc2xhdGUoMCwgMCkiIGNsYXNzPSJsYWJlbCI+PHJlY3QgaGVpZ2h0PSIwIiB3aWR0aD0iMCIgcnk9IjAiIHJ4PSIwIj48L3JlY3Q+PHRleHQgc3R5bGU9IiI+PHRzcGFuIGNsYXNzPSJyb3ciIHg9IjAiIGR5PSIxZW0iIHhtbDpzcGFjZT0icHJlc2VydmUiPjwvdHNwYW4+PC90ZXh0PjwvZz48L2c+PGcgY2xhc3M9ImVkZ2VMYWJlbCI+PGcgdHJhbnNmb3JtPSJ0cmFuc2xhdGUoMCwgMCkiIGNsYXNzPSJsYWJlbCI+PHJlY3QgaGVpZ2h0PSIwIiB3aWR0aD0iMCIgcnk9IjAiIHJ4PSIwIj48L3JlY3Q+PHRleHQgc3R5bGU9IiI+PHRzcGFuIGNsYXNzPSJyb3ciIHg9IjAiIGR5PSIxZW0iIHhtbDpzcGFjZT0icHJlc2VydmUiPjwvdHNwYW4+PC90ZXh0PjwvZz48L2c+PGcgY2xhc3M9ImVkZ2VMYWJlbCI+PGcgdHJhbnNmb3JtPSJ0cmFuc2xhdGUoMCwgMCkiIGNsYXNzPSJsYWJlbCI+PHJlY3QgaGVpZ2h0PSIwIiB3aWR0aD0iMCIgcnk9IjAiIHJ4PSIwIj48L3JlY3Q+PHRleHQgc3R5bGU9IiI+PHRzcGFuIGNsYXNzPSJyb3ciIHg9IjAiIGR5PSIxZW0iIHhtbDpzcGFjZT0icHJlc2VydmUiPjwvdHNwYW4+PC90ZXh0PjwvZz48L2c+PGcgY2xhc3M9ImVkZ2VMYWJlbCI+PGcgdHJhbnNmb3JtPSJ0cmFuc2xhdGUoMCwgMCkiIGNsYXNzPSJsYWJlbCI+PHJlY3QgaGVpZ2h0PSIwIiB3aWR0aD0iMCIgcnk9IjAiIHJ4PSIwIj48L3JlY3Q+PHRleHQgc3R5bGU9IiI+PHRzcGFuIGNsYXNzPSJyb3ciIHg9IjAiIGR5PSIxZW0iIHhtbDpzcGFjZT0icHJlc2VydmUiPjwvdHNwYW4+PC90ZXh0PjwvZz48L2c+PGcgY2xhc3M9ImVkZ2VMYWJlbCI+PGcgdHJhbnNmb3JtPSJ0cmFuc2xhdGUoMCwgMCkiIGNsYXNzPSJsYWJlbCI+PHJlY3QgaGVpZ2h0PSIwIiB3aWR0aD0iMCIgcnk9IjAiIHJ4PSIwIj48L3JlY3Q+PHRleHQgc3R5bGU9IiI+PHRzcGFuIGNsYXNzPSJyb3ciIHg9IjAiIGR5PSIxZW0iIHhtbDpzcGFjZT0icHJlc2VydmUiPjwvdHNwYW4+PC90ZXh0PjwvZz48L2c+PC9nPjxnIGNsYXNzPSJub2RlcyI+PGcgdHJhbnNmb3JtPSJ0cmFuc2xhdGUoMTY4NC4zMzAwNzQzMTAzMDI3LCA0ODYuNzAwMDAwNzYyOTM5NDUpIiBpZD0iY2xhc3NpZC1HZXRZZXNOb0Fuc3dlci0wIiBjbGFzcz0ibm9kZSBkZWZhdWx0Ij48cmVjdCBoZWlnaHQ9IjEwMi4xOTk5OTg4NTU1OTA4MiIgd2lkdGg9IjE4NS4wNjI1IiB5PSItNTEuMDk5OTk5NDI3Nzk1NDEiIHg9Ii05Mi41MzEyNSIgY2xhc3M9Im91dGVyIHRpdGxlLXN0YXRlIj48L3JlY3Q+PGxpbmUgeTI9Ii0yMC42OTk5OTk4MDkyNjUxMzciIHkxPSItMjAuNjk5OTk5ODA5MjY1MTM3IiB4Mj0iOTIuNTMxMjUiIHgxPSItOTIuNTMxMjUiIGNsYXNzPSJkaXZpZGVyIj48L2xpbmU+PGxpbmUgeTI9IjE3LjY5OTk5OTgwOTI2NTEzNyIgeTE9IjE3LjY5OTk5OTgwOTI2NTEzNyIgeDI9IjkyLjUzMTI1IiB4MT0iLTkyLjUzMTI1IiBjbGFzcz0iZGl2aWRlciI+PC9saW5lPjxnIGNsYXNzPSJsYWJlbCI+PHRleHQgc3R5bGU9IiI+PHRzcGFuIGNsYXNzPSJ0aXRsZS1yb3ciIHg9IjAiIGR5PSIxZW0iIHhtbDpzcGFjZT0icHJlc2VydmUiPjwvdHNwYW4+PC90ZXh0Pjx0ZXh0IHRyYW5zZm9ybT0idHJhbnNsYXRlKCAtNjIuOTI0MjIxMDM4ODE4MzYsIC00My41OTk5OTk0Mjc3OTU0MSkiIGNsYXNzPSJjbGFzc1RpdGxlIiBzdHlsZT0iIj48dHNwYW4gY2xhc3M9InRpdGxlLXJvdyIgeD0iMCIgZHk9IjFlbSIgeG1sOnNwYWNlPSJwcmVzZXJ2ZSI+R2V0WWVzTm9BbnN3ZXI8L3RzcGFuPjwvdGV4dD48dGV4dCB0cmFuc2Zvcm09InRyYW5zbGF0ZSggLTg1LjAzMTI1LCAtOS4xOTk5OTk4MDkyNjUxMzcpIiBzdHlsZT0iIj48dHNwYW4gY2xhc3M9InRpdGxlLXJvdyIgeD0iMCIgZHk9IjFlbSIgeG1sOnNwYWNlPSJwcmVzZXJ2ZSI+LV9kaW8gRGlvPC90c3Bhbj48L3RleHQ+PHRleHQgdHJhbnNmb3JtPSJ0cmFuc2xhdGUoIC04NS4wMzEyNSwgMjUuMTk5OTk5ODA5MjY1MTM3KSIgc3R5bGU9IiI+PHRzcGFuIGNsYXNzPSJ0aXRsZS1yb3ciIHg9IjAiIGR5PSIxZW0iIHhtbDpzcGFjZT0icHJlc2VydmUiPitnZXRBbnN3ZXIoKSA6IGR5bmFtaWM8L3RzcGFuPjwvdGV4dD48L2c+PC9nPjxnIHRyYW5zZm9ybT0idHJhbnNsYXRlKDE2ODQuMzMwMDc0MzEwMzAyNywgNjgzLjY5OTk5Njk0ODI0MjIpIiBpZD0iY2xhc3NpZC1EaW8tMSIgY2xhc3M9Im5vZGUgZGVmYXVsdCI+PHJlY3QgaGVpZ2h0PSI1Ny4zOTk5OTk2MTg1MzAyNyIgd2lkdGg9IjM5LjExMjUwMTE0NDQwOTE4IiB5PSItMjguNjk5OTk5ODA5MjY1MTM3IiB4PSItMTkuNTU2MjUwNTcyMjA0NTkiIGNsYXNzPSJvdXRlciB0aXRsZS1zdGF0ZSI+PC9yZWN0PjxsaW5lIHkyPSIxLjY5OTk5OTgwOTI2NTEzNjciIHkxPSIxLjY5OTk5OTgwOTI2NTEzNjciIHgyPSIxOS41NTYyNTA1NzIyMDQ1OSIgeDE9Ii0xOS41NTYyNTA1NzIyMDQ1OSIgY2xhc3M9ImRpdmlkZXIiPjwvbGluZT48bGluZSB5Mj0iMTcuNjk5OTk5ODA5MjY1MTM3IiB5MT0iMTcuNjk5OTk5ODA5MjY1MTM3IiB4Mj0iMTkuNTU2MjUwNTcyMjA0NTkiIHgxPSItMTkuNTU2MjUwNTcyMjA0NTkiIGNsYXNzPSJkaXZpZGVyIj48L2xpbmU+PGcgY2xhc3M9ImxhYmVsIj48dGV4dCBzdHlsZT0iIj48dHNwYW4gY2xhc3M9InRpdGxlLXJvdyIgeD0iMCIgZHk9IjFlbSIgeG1sOnNwYWNlPSJwcmVzZXJ2ZSI+PC90c3Bhbj48L3RleHQ+PHRleHQgdHJhbnNmb3JtPSJ0cmFuc2xhdGUoIC0xMi4wNTYyNTA1NzIyMDQ1OSwgLTIxLjE5OTk5OTgwOTI2NTEzNykiIGNsYXNzPSJjbGFzc1RpdGxlIiBzdHlsZT0iIj48dHNwYW4gY2xhc3M9InRpdGxlLXJvdyIgeD0iMCIgZHk9IjFlbSIgeG1sOnNwYWNlPSJwcmVzZXJ2ZSI+RGlvPC90c3Bhbj48L3RleHQ+PC9nPjwvZz48ZyB0cmFuc2Zvcm09InRyYW5zbGF0ZSgyMzAuNTMyNzk4NzY3MDg5ODQsIDcwLjI5OTk5OTIzNzA2MDU1KSIgaWQ9ImNsYXNzaWQtWWVzTm9Nb2RlbC0yIiBjbGFzcz0ibm9kZSBkZWZhdWx0Ij48cmVjdCBoZWlnaHQ9IjEyNC41OTk5OTg0NzQxMjExIiB3aWR0aD0iMTM0LjEyNSIgeT0iLTYyLjI5OTk5OTIzNzA2MDU1IiB4PSItNjcuMDYyNSIgY2xhc3M9Im91dGVyIHRpdGxlLXN0YXRlIj48L3JlY3Q+PGxpbmUgeTI9Ii0zMS44OTk5OTk2MTg1MzAyNzMiIHkxPSItMzEuODk5OTk5NjE4NTMwMjczIiB4Mj0iNjcuMDYyNSIgeDE9Ii02Ny4wNjI1IiBjbGFzcz0iZGl2aWRlciI+PC9saW5lPjxsaW5lIHkyPSI1MS4yOTk5OTkyMzcwNjA1NSIgeTE9IjUxLjI5OTk5OTIzNzA2MDU1IiB4Mj0iNjcuMDYyNSIgeDE9Ii02Ny4wNjI1IiBjbGFzcz0iZGl2aWRlciI+PC9saW5lPjxnIGNsYXNzPSJsYWJlbCI+PHRleHQgc3R5bGU9IiI+PHRzcGFuIGNsYXNzPSJ0aXRsZS1yb3ciIHg9IjAiIGR5PSIxZW0iIHhtbDpzcGFjZT0icHJlc2VydmUiPjwvdHNwYW4+PC90ZXh0Pjx0ZXh0IHRyYW5zZm9ybT0idHJhbnNsYXRlKCAtNDQuNjEyNDk5MjM3MDYwNTUsIC01NC43OTk5OTkyMzcwNjA1NSkiIGNsYXNzPSJjbGFzc1RpdGxlIiBzdHlsZT0iIj48dHNwYW4gY2xhc3M9InRpdGxlLXJvdyIgeD0iMCIgZHk9IjFlbSIgeG1sOnNwYWNlPSJwcmVzZXJ2ZSI+WWVzTm9Nb2RlbDwvdHNwYW4+PC90ZXh0Pjx0ZXh0IHRyYW5zZm9ybT0idHJhbnNsYXRlKCAtNTkuNTYyNSwgLTIwLjM5OTk5OTYxODUzMDI3MykiIHN0eWxlPSIiPjx0c3BhbiBjbGFzcz0idGl0bGUtcm93IiB4PSIwIiBkeT0iMWVtIiB4bWw6c3BhY2U9InByZXNlcnZlIj4rYW5zd2VyIFN0cmluZzwvdHNwYW4+PC90ZXh0Pjx0ZXh0IHRyYW5zZm9ybT0idHJhbnNsYXRlKCAtNTkuNTYyNSwgMikiIHN0eWxlPSIiPjx0c3BhbiBjbGFzcz0idGl0bGUtcm93IiB4PSIwIiBkeT0iMWVtIiB4bWw6c3BhY2U9InByZXNlcnZlIj4rZm9yY2VkIGJvb2w8L3RzcGFuPjwvdGV4dD48dGV4dCB0cmFuc2Zvcm09InRyYW5zbGF0ZSggLTU5LjU2MjUsIDI0LjM5OTk5OTYxODUzMDI3MykiIHN0eWxlPSIiPjx0c3BhbiBjbGFzcz0idGl0bGUtcm93IiB4PSIwIiBkeT0iMWVtIiB4bWw6c3BhY2U9InByZXNlcnZlIj4raW1hZ2VVcmwgU3RyaW5nPC90c3Bhbj48L3RleHQ+PC9nPjwvZz48ZyB0cmFuc2Zvcm09InRyYW5zbGF0ZSg0MzYuNTU3ODAwMjkyOTY4NzUsIDcwLjI5OTk5OTIzNzA2MDU1KSIgaWQ9ImNsYXNzaWQtQXBwVGhlbWUtMyIgY2xhc3M9Im5vZGUgZGVmYXVsdCI+PHJlY3QgaGVpZ2h0PSIxMDIuMTk5OTk4ODU1NTkwODIiIHdpZHRoPSIxNzcuOTI1MDAzMDUxNzU3OCIgeT0iLTUxLjA5OTk5OTQyNzc5NTQxIiB4PSItODguOTYyNTAxNTI1ODc4OSIgY2xhc3M9Im91dGVyIHRpdGxlLXN0YXRlIj48L3JlY3Q+PGxpbmUgeTI9Ii0yMC42OTk5OTk4MDkyNjUxMzciIHkxPSItMjAuNjk5OTk5ODA5MjY1MTM3IiB4Mj0iODguOTYyNTAxNTI1ODc4OSIgeDE9Ii04OC45NjI1MDE1MjU4Nzg5IiBjbGFzcz0iZGl2aWRlciI+PC9saW5lPjxsaW5lIHkyPSIxNy42OTk5OTk4MDkyNjUxMzciIHkxPSIxNy42OTk5OTk4MDkyNjUxMzciIHgyPSI4OC45NjI1MDE1MjU4Nzg5IiB4MT0iLTg4Ljk2MjUwMTUyNTg3ODkiIGNsYXNzPSJkaXZpZGVyIj48L2xpbmU+PGcgY2xhc3M9ImxhYmVsIj48dGV4dCBzdHlsZT0iIj48dHNwYW4gY2xhc3M9InRpdGxlLXJvdyIgeD0iMCIgZHk9IjFlbSIgeG1sOnNwYWNlPSJwcmVzZXJ2ZSI+PC90c3Bhbj48L3RleHQ+PHRleHQgdHJhbnNmb3JtPSJ0cmFuc2xhdGUoIC00MC42OTYwOTQ1MTI5Mzk0NSwgLTQzLjU5OTk5OTQyNzc5NTQxKSIgY2xhc3M9ImNsYXNzVGl0bGUiIHN0eWxlPSIiPjx0c3BhbiBjbGFzcz0idGl0bGUtcm93IiB4PSIwIiBkeT0iMWVtIiB4bWw6c3BhY2U9InByZXNlcnZlIj5BcHBUaGVtZTwvdHNwYW4+PC90ZXh0Pjx0ZXh0IHRyYW5zZm9ybT0idHJhbnNsYXRlKCAtODEuNDYyNTAxNTI1ODc4OSwgLTkuMTk5OTk5ODA5MjY1MTM3KSIgc3R5bGU9IiI+PHRzcGFuIGNsYXNzPSJ0aXRsZS1yb3ciIHg9IjAiIGR5PSIxZW0iIHhtbDpzcGFjZT0icHJlc2VydmUiPitzZWxlY3RlZENvbG9yIGludDwvdHNwYW4+PC90ZXh0Pjx0ZXh0IHRyYW5zZm9ybT0idHJhbnNsYXRlKCAtODEuNDYyNTAxNTI1ODc4OSwgMjUuMTk5OTk5ODA5MjY1MTM3KSIgc3R5bGU9IiI+PHRzcGFuIGNsYXNzPSJ0aXRsZS1yb3ciIHg9IjAiIGR5PSIxZW0iIHhtbDpzcGFjZT0icHJlc2VydmUiPit0aGVtZSgpIDogVGhlbWVEYXRhPC90c3Bhbj48L3RleHQ+PC9nPjwvZz48ZyB0cmFuc2Zvcm09InRyYW5zbGF0ZSg4NjIuNDI0MjA5NTk0NzI2NiwgNDg2LjcwMDAwMDc2MjkzOTQ1KSIgaWQ9ImNsYXNzaWQtTWVzc2FnZS00IiBjbGFzcz0ibm9kZSBkZWZhdWx0Ij48cmVjdCBoZWlnaHQ9IjEyNC41OTk5OTg0NzQxMjExIiB3aWR0aD0iMTYwLjgzMTI1MzA1MTc1NzgiIHk9Ii02Mi4yOTk5OTkyMzcwNjA1NSIgeD0iLTgwLjQxNTYyNjUyNTg3ODkiIGNsYXNzPSJvdXRlciB0aXRsZS1zdGF0ZSI+PC9yZWN0PjxsaW5lIHkyPSItMzEuODk5OTk5NjE4NTMwMjczIiB5MT0iLTMxLjg5OTk5OTYxODUzMDI3MyIgeDI9IjgwLjQxNTYyNjUyNTg3ODkiIHgxPSItODAuNDE1NjI2NTI1ODc4OSIgY2xhc3M9ImRpdmlkZXIiPjwvbGluZT48bGluZSB5Mj0iNTEuMjk5OTk5MjM3MDYwNTUiIHkxPSI1MS4yOTk5OTkyMzcwNjA1NSIgeDI9IjgwLjQxNTYyNjUyNTg3ODkiIHgxPSItODAuNDE1NjI2NTI1ODc4OSIgY2xhc3M9ImRpdmlkZXIiPjwvbGluZT48ZyBjbGFzcz0ibGFiZWwiPjx0ZXh0IHN0eWxlPSIiPjx0c3BhbiBjbGFzcz0idGl0bGUtcm93IiB4PSIwIiBkeT0iMWVtIiB4bWw6c3BhY2U9InByZXNlcnZlIj48L3RzcGFuPjwvdGV4dD48dGV4dCB0cmFuc2Zvcm09InRyYW5zbGF0ZSggLTMwLjkyNjU2MzI2MjkzOTQ1MywgLTU0Ljc5OTk5OTIzNzA2MDU1KSIgY2xhc3M9ImNsYXNzVGl0bGUiIHN0eWxlPSIiPjx0c3BhbiBjbGFzcz0idGl0bGUtcm93IiB4PSIwIiBkeT0iMWVtIiB4bWw6c3BhY2U9InByZXNlcnZlIj5NZXNzYWdlPC90c3Bhbj48L3RleHQ+PHRleHQgdHJhbnNmb3JtPSJ0cmFuc2xhdGUoIC03Mi45MTU2MjY1MjU4Nzg5LCAtMjAuMzk5OTk5NjE4NTMwMjczKSIgc3R5bGU9IiI+PHRzcGFuIGNsYXNzPSJ0aXRsZS1yb3ciIHg9IjAiIGR5PSIxZW0iIHhtbDpzcGFjZT0icHJlc2VydmUiPit0ZXh0IFN0cmluZzwvdHNwYW4+PC90ZXh0Pjx0ZXh0IHRyYW5zZm9ybT0idHJhbnNsYXRlKCAtNzIuOTE1NjI2NTI1ODc4OSwgMikiIHN0eWxlPSIiPjx0c3BhbiBjbGFzcz0idGl0bGUtcm93IiB4PSIwIiBkeT0iMWVtIiB4bWw6c3BhY2U9InByZXNlcnZlIj4raW1hZ2VVcmwgU3RyaW5nPzwvdHNwYW4+PC90ZXh0Pjx0ZXh0IHRyYW5zZm9ybT0idHJhbnNsYXRlKCAtNzIuOTE1NjI2NTI1ODc4OSwgMjQuMzk5OTk5NjE4NTMwMjczKSIgc3R5bGU9IiI+PHRzcGFuIGNsYXNzPSJ0aXRsZS1yb3ciIHg9IjAiIGR5PSIxZW0iIHhtbDpzcGFjZT0icHJlc2VydmUiPitmcm9tV2hvIEZyb21XaG88L3RzcGFuPjwvdGV4dD48L2c+PC9nPjxnIHRyYW5zZm9ybT0idHJhbnNsYXRlKDExMjguOTQyNTY1OTE3OTY4OCwgNjgzLjY5OTk5Njk0ODI0MjIpIiBpZD0iY2xhc3NpZC1Gcm9tV2hvLTUiIGNsYXNzPSJub2RlIGRlZmF1bHQiPjxyZWN0IGhlaWdodD0iMTY5LjM5OTk5NzcxMTE4MTY0IiB3aWR0aD0iMTkxLjIyNTAwNjEwMzUxNTYyIiB5PSItODQuNjk5OTk4ODU1NTkwODIiIHg9Ii05NS42MTI1MDMwNTE3NTc4MSIgY2xhc3M9Im91dGVyIHRpdGxlLXN0YXRlIj48L3JlY3Q+PGxpbmUgeTI9Ii0zMS44OTk5OTk2MTg1MzAyNzMiIHkxPSItMzEuODk5OTk5NjE4NTMwMjczIiB4Mj0iOTUuNjEyNTAzMDUxNzU3ODEiIHgxPSItOTUuNjEyNTAzMDUxNzU3ODEiIGNsYXNzPSJkaXZpZGVyIj48L2xpbmU+PGxpbmUgeTI9IjczLjY5OTk5ODg1NTU5MDgyIiB5MT0iNzMuNjk5OTk4ODU1NTkwODIiIHgyPSI5NS42MTI1MDMwNTE3NTc4MSIgeDE9Ii05NS42MTI1MDMwNTE3NTc4MSIgY2xhc3M9ImRpdmlkZXIiPjwvbGluZT48ZyBjbGFzcz0ibGFiZWwiPjx0ZXh0IHRyYW5zZm9ybT0idHJhbnNsYXRlKCAtNTMuOTMxMjUxNTI1ODc4OTA2LCAtNzcuMTk5OTk4ODU1NTkwODIpIiBzdHlsZT0iIj48dHNwYW4gY2xhc3M9InRpdGxlLXJvdyIgeD0iMCIgZHk9IjFlbSIgeG1sOnNwYWNlPSJwcmVzZXJ2ZSI+wqtlbnVtZXJhdGlvbsK7PC90c3Bhbj48L3RleHQ+PHRleHQgdHJhbnNmb3JtPSJ0cmFuc2xhdGUoIC0zNS44MzEyNDkyMzcwNjA1NSwgLTU0Ljc5OTk5OTIzNzA2MDU1KSIgY2xhc3M9ImNsYXNzVGl0bGUiIHN0eWxlPSIiPjx0c3BhbiBjbGFzcz0idGl0bGUtcm93IiB4PSIwIiBkeT0iMWVtIiB4bWw6c3BhY2U9InByZXNlcnZlIj5Gcm9tV2hvPC90c3Bhbj48L3RleHQ+PHRleHQgdHJhbnNmb3JtPSJ0cmFuc2xhdGUoIC04OC4xMTI1MDMwNTE3NTc4MSwgLTIwLjM5OTk5OTYxODUzMDI3MykiIHN0eWxlPSIiPjx0c3BhbiBjbGFzcz0idGl0bGUtcm93IiB4PSIwIiBkeT0iMWVtIiB4bWw6c3BhY2U9InByZXNlcnZlIj4raW5kZXggaW50PC90c3Bhbj48L3RleHQ+PHRleHQgdHJhbnNmb3JtPSJ0cmFuc2xhdGUoIC04OC4xMTI1MDMwNTE3NTc4MSwgMikiIHN0eWxlPSIiPjx0c3BhbiBjbGFzcz0idGl0bGUtcm93IiB4PSIwIiBkeT0iMWVtIiB4bWw6c3BhY2U9InByZXNlcnZlIj4rdmFsdWVzJCBMaXN0Jmx0O0Zyb21XaG8mZ3Q7PC90c3Bhbj48L3RleHQ+PHRleHQgdHJhbnNmb3JtPSJ0cmFuc2xhdGUoIC04OC4xMTI1MDMwNTE3NTc4MSwgMjQuMzk5OTk5NjE4NTMwMjczKSIgc3R5bGU9IiI+PHRzcGFuIGNsYXNzPSJ0aXRsZS1yb3ciIHg9IjAiIGR5PSIxZW0iIHhtbDpzcGFjZT0icHJlc2VydmUiPittZSQgRnJvbVdobzwvdHNwYW4+PC90ZXh0Pjx0ZXh0IHRyYW5zZm9ybT0idHJhbnNsYXRlKCAtODguMTEyNTAzMDUxNzU3ODEsIDQ2Ljc5OTk5OTIzNzA2MDU1KSIgc3R5bGU9IiI+PHRzcGFuIGNsYXNzPSJ0aXRsZS1yb3ciIHg9IjAiIGR5PSIxZW0iIHhtbDpzcGFjZT0icHJlc2VydmUiPitvdGhlciQgRnJvbVdobzwvdHNwYW4+PC90ZXh0PjwvZz48L2c+PGcgdHJhbnNmb3JtPSJ0cmFuc2xhdGUoMTQzNy43OTY4NjczNzA2MDU1LCA0ODYuNzAwMDAwNzYyOTM5NDUpIiBpZD0iY2xhc3NpZC1FbnVtLTYiIGNsYXNzPSJub2RlIGRlZmF1bHQiPjxyZWN0IGhlaWdodD0iNTcuMzk5OTk5NjE4NTMwMjciIHdpZHRoPSI1Ni43NSIgeT0iLTI4LjY5OTk5OTgwOTI2NTEzNyIgeD0iLTI4LjM3NSIgY2xhc3M9Im91dGVyIHRpdGxlLXN0YXRlIj48L3JlY3Q+PGxpbmUgeTI9IjEuNjk5OTk5ODA5MjY1MTM2NyIgeTE9IjEuNjk5OTk5ODA5MjY1MTM2NyIgeDI9IjI4LjM3NSIgeDE9Ii0yOC4zNzUiIGNsYXNzPSJkaXZpZGVyIj48L2xpbmU+PGxpbmUgeTI9IjE3LjY5OTk5OTgwOTI2NTEzNyIgeTE9IjE3LjY5OTk5OTgwOTI2NTEzNyIgeDI9IjI4LjM3NSIgeDE9Ii0yOC4zNzUiIGNsYXNzPSJkaXZpZGVyIj48L2xpbmU+PGcgY2xhc3M9ImxhYmVsIj48dGV4dCBzdHlsZT0iIj48dHNwYW4gY2xhc3M9InRpdGxlLXJvdyIgeD0iMCIgZHk9IjFlbSIgeG1sOnNwYWNlPSJwcmVzZXJ2ZSI+PC90c3Bhbj48L3RleHQ+PHRleHQgdHJhbnNmb3JtPSJ0cmFuc2xhdGUoIC0yMC44NzUsIC0yMS4xOTk5OTk4MDkyNjUxMzcpIiBjbGFzcz0iY2xhc3NUaXRsZSIgc3R5bGU9IiI+PHRzcGFuIGNsYXNzPSJ0aXRsZS1yb3ciIHg9IjAiIGR5PSIxZW0iIHhtbDpzcGFjZT0icHJlc2VydmUiPkVudW08L3RzcGFuPjwvdGV4dD48L2c+PC9nPjxnIHRyYW5zZm9ybT0idHJhbnNsYXRlKDc2LjI3ODEyMTk0ODI0MjE5LCAyNzguNSkiIGlkPSJjbGFzc2lkLU15QXBwLTciIGNsYXNzPSJub2RlIGRlZmF1bHQiPjxyZWN0IGhlaWdodD0iNzkuNzk5OTk5MjM3MDYwNTUiIHdpZHRoPSIxMzYuNTU2MjUxNTI1ODc4OSIgeT0iLTM5Ljg5OTk5OTYxODUzMDI3IiB4PSItNjguMjc4MTI1NzYyOTM5NDUiIGNsYXNzPSJvdXRlciB0aXRsZS1zdGF0ZSI+PC9yZWN0PjxsaW5lIHkyPSItOS41IiB5MT0iLTkuNSIgeDI9IjY4LjI3ODEyNTc2MjkzOTQ1IiB4MT0iLTY4LjI3ODEyNTc2MjkzOTQ1IiBjbGFzcz0iZGl2aWRlciI+PC9saW5lPjxsaW5lIHkyPSI2LjUiIHkxPSI2LjUiIHgyPSI2OC4yNzgxMjU3NjI5Mzk0NSIgeDE9Ii02OC4yNzgxMjU3NjI5Mzk0NSIgY2xhc3M9ImRpdmlkZXIiPjwvbGluZT48ZyBjbGFzcz0ibGFiZWwiPjx0ZXh0IHN0eWxlPSIiPjx0c3BhbiBjbGFzcz0idGl0bGUtcm93IiB4PSIwIiBkeT0iMWVtIiB4bWw6c3BhY2U9InByZXNlcnZlIj48L3RzcGFuPjwvdGV4dD48dGV4dCB0cmFuc2Zvcm09InRyYW5zbGF0ZSggLTI1LjE1NzAzMjAxMjkzOTQ1MywgLTMyLjM5OTk5OTYxODUzMDI3KSIgY2xhc3M9ImNsYXNzVGl0bGUiIHN0eWxlPSIiPjx0c3BhbiBjbGFzcz0idGl0bGUtcm93IiB4PSIwIiBkeT0iMWVtIiB4bWw6c3BhY2U9InByZXNlcnZlIj5NeUFwcDwvdHNwYW4+PC90ZXh0Pjx0ZXh0IHRyYW5zZm9ybT0idHJhbnNsYXRlKCAtNjAuNzc4MTI1NzYyOTM5NDUsIDE0KSIgc3R5bGU9IiI+PHRzcGFuIGNsYXNzPSJ0aXRsZS1yb3ciIHg9IjAiIGR5PSIxZW0iIHhtbDpzcGFjZT0icHJlc2VydmUiPitidWlsZCgpIDogV2lkZ2V0PC90c3Bhbj48L3RleHQ+PC9nPjwvZz48ZyB0cmFuc2Zvcm09InRyYW5zbGF0ZSg2NDIuMDc1NzY3NTE3MDg5OCwgNzAuMjk5OTk5MjM3MDYwNTUpIiBpZD0iY2xhc3NpZC1TdGF0ZWxlc3NXaWRnZXQtOCIgY2xhc3M9Im5vZGUgZGVmYXVsdCI+PHJlY3QgaGVpZ2h0PSI1Ny4zOTk5OTk2MTg1MzAyNyIgd2lkdGg9IjEzMy4xMTA5MzkwMjU4Nzg5IiB5PSItMjguNjk5OTk5ODA5MjY1MTM3IiB4PSItNjYuNTU1NDY5NTEyOTM5NDUiIGNsYXNzPSJvdXRlciB0aXRsZS1zdGF0ZSI+PC9yZWN0PjxsaW5lIHkyPSIxLjY5OTk5OTgwOTI2NTEzNjciIHkxPSIxLjY5OTk5OTgwOTI2NTEzNjciIHgyPSI2Ni41NTU0Njk1MTI5Mzk0NSIgeDE9Ii02Ni41NTU0Njk1MTI5Mzk0NSIgY2xhc3M9ImRpdmlkZXIiPjwvbGluZT48bGluZSB5Mj0iMTcuNjk5OTk5ODA5MjY1MTM3IiB5MT0iMTcuNjk5OTk5ODA5MjY1MTM3IiB4Mj0iNjYuNTU1NDY5NTEyOTM5NDUiIHgxPSItNjYuNTU1NDY5NTEyOTM5NDUiIGNsYXNzPSJkaXZpZGVyIj48L2xpbmU+PGcgY2xhc3M9ImxhYmVsIj48dGV4dCBzdHlsZT0iIj48dHNwYW4gY2xhc3M9InRpdGxlLXJvdyIgeD0iMCIgZHk9IjFlbSIgeG1sOnNwYWNlPSJwcmVzZXJ2ZSI+PC90c3Bhbj48L3RleHQ+PHRleHQgdHJhbnNmb3JtPSJ0cmFuc2xhdGUoIC01OS4wNTU0Njk1MTI5Mzk0NSwgLTIxLjE5OTk5OTgwOTI2NTEzNykiIGNsYXNzPSJjbGFzc1RpdGxlIiBzdHlsZT0iIj48dHNwYW4gY2xhc3M9InRpdGxlLXJvdyIgeD0iMCIgZHk9IjFlbSIgeG1sOnNwYWNlPSJwcmVzZXJ2ZSI+U3RhdGVsZXNzV2lkZ2V0PC90c3Bhbj48L3RleHQ+PC9nPjwvZz48ZyB0cmFuc2Zvcm09InRyYW5zbGF0ZSgyNjIuODM0MzY1ODQ0NzI2NTYsIDI3OC41KSIgaWQ9ImNsYXNzaWQtQ2hhdFNjcmVlbi05IiBjbGFzcz0ibm9kZSBkZWZhdWx0Ij48cmVjdCBoZWlnaHQ9Ijc5Ljc5OTk5OTIzNzA2MDU1IiB3aWR0aD0iMTM2LjU1NjI1MTUyNTg3ODkiIHk9Ii0zOS44OTk5OTk2MTg1MzAyNyIgeD0iLTY4LjI3ODEyNTc2MjkzOTQ1IiBjbGFzcz0ib3V0ZXIgdGl0bGUtc3RhdGUiPjwvcmVjdD48bGluZSB5Mj0iLTkuNSIgeTE9Ii05LjUiIHgyPSI2OC4yNzgxMjU3NjI5Mzk0NSIgeDE9Ii02OC4yNzgxMjU3NjI5Mzk0NSIgY2xhc3M9ImRpdmlkZXIiPjwvbGluZT48bGluZSB5Mj0iNi41IiB5MT0iNi41IiB4Mj0iNjguMjc4MTI1NzYyOTM5NDUiIHgxPSItNjguMjc4MTI1NzYyOTM5NDUiIGNsYXNzPSJkaXZpZGVyIj48L2xpbmU+PGcgY2xhc3M9ImxhYmVsIj48dGV4dCBzdHlsZT0iIj48dHNwYW4gY2xhc3M9InRpdGxlLXJvdyIgeD0iMCIgZHk9IjFlbSIgeG1sOnNwYWNlPSJwcmVzZXJ2ZSI+PC90c3Bhbj48L3RleHQ+PHRleHQgdHJhbnNmb3JtPSJ0cmFuc2xhdGUoIC00Mi41OTM3NSwgLTMyLjM5OTk5OTYxODUzMDI3KSIgY2xhc3M9ImNsYXNzVGl0bGUiIHN0eWxlPSIiPjx0c3BhbiBjbGFzcz0idGl0bGUtcm93IiB4PSIwIiBkeT0iMWVtIiB4bWw6c3BhY2U9InByZXNlcnZlIj5DaGF0U2NyZWVuPC90c3Bhbj48L3RleHQ+PHRleHQgdHJhbnNmb3JtPSJ0cmFuc2xhdGUoIC02MC43NzgxMjU3NjI5Mzk0NSwgMTQpIiBzdHlsZT0iIj48dHNwYW4gY2xhc3M9InRpdGxlLXJvdyIgeD0iMCIgZHk9IjFlbSIgeG1sOnNwYWNlPSJwcmVzZXJ2ZSI+K2J1aWxkKCkgOiBXaWRnZXQ8L3RzcGFuPjwvdGV4dD48L2c+PC9nPjxnIHRyYW5zZm9ybT0idHJhbnNsYXRlKDQ0OS4zOTA2MDk3NDEyMTA5NCwgMjc4LjUpIiBpZD0iY2xhc3NpZC1DaGF0Vmlldy0xMCIgY2xhc3M9Im5vZGUgZGVmYXVsdCI+PHJlY3QgaGVpZ2h0PSI3OS43OTk5OTkyMzcwNjA1NSIgd2lkdGg9IjEzNi41NTYyNTE1MjU4Nzg5IiB5PSItMzkuODk5OTk5NjE4NTMwMjciIHg9Ii02OC4yNzgxMjU3NjI5Mzk0NSIgY2xhc3M9Im91dGVyIHRpdGxlLXN0YXRlIj48L3JlY3Q+PGxpbmUgeTI9Ii05LjUiIHkxPSItOS41IiB4Mj0iNjguMjc4MTI1NzYyOTM5NDUiIHgxPSItNjguMjc4MTI1NzYyOTM5NDUiIGNsYXNzPSJkaXZpZGVyIj48L2xpbmU+PGxpbmUgeTI9IjYuNSIgeTE9IjYuNSIgeDI9IjY4LjI3ODEyNTc2MjkzOTQ1IiB4MT0iLTY4LjI3ODEyNTc2MjkzOTQ1IiBjbGFzcz0iZGl2aWRlciI+PC9saW5lPjxnIGNsYXNzPSJsYWJlbCI+PHRleHQgc3R5bGU9IiI+PHRzcGFuIGNsYXNzPSJ0aXRsZS1yb3ciIHg9IjAiIGR5PSIxZW0iIHhtbDpzcGFjZT0icHJlc2VydmUiPjwvdHNwYW4+PC90ZXh0Pjx0ZXh0IHRyYW5zZm9ybT0idHJhbnNsYXRlKCAtMzUuMjgyODE0MDI1ODc4OTA2LCAtMzIuMzk5OTk5NjE4NTMwMjcpIiBjbGFzcz0iY2xhc3NUaXRsZSIgc3R5bGU9IiI+PHRzcGFuIGNsYXNzPSJ0aXRsZS1yb3ciIHg9IjAiIGR5PSIxZW0iIHhtbDpzcGFjZT0icHJlc2VydmUiPkNoYXRWaWV3PC90c3Bhbj48L3RleHQ+PHRleHQgdHJhbnNmb3JtPSJ0cmFuc2xhdGUoIC02MC43NzgxMjU3NjI5Mzk0NSwgMTQpIiBzdHlsZT0iIj48dHNwYW4gY2xhc3M9InRpdGxlLXJvdyIgeD0iMCIgZHk9IjFlbSIgeG1sOnNwYWNlPSJwcmVzZXJ2ZSI+K2J1aWxkKCkgOiBXaWRnZXQ8L3RzcGFuPjwvdGV4dD48L2c+PC9nPjxnIHRyYW5zZm9ybT0idHJhbnNsYXRlKDE1MjYuNDI2NTU5NDQ4MjQyMiwgMjc4LjUpIiBpZD0iY2xhc3NpZC1DaGF0UHJvdmlkZXItMTEiIGNsYXNzPSJub2RlIGRlZmF1bHQiPjxyZWN0IGhlaWdodD0iMTkxLjc5OTk5NzMyOTcxMTkiIHdpZHRoPSIyNjMuMDU5MzcxOTQ4MjQyMiIgeT0iLTk1Ljg5OTk5ODY2NDg1NTk2IiB4PSItMTMxLjUyOTY4NTk3NDEyMTEiIGNsYXNzPSJvdXRlciB0aXRsZS1zdGF0ZSI+PC9yZWN0PjxsaW5lIHkyPSItNjUuNDk5OTk5MDQ2MzI1NjgiIHkxPSItNjUuNDk5OTk5MDQ2MzI1NjgiIHgyPSIxMzEuNTI5Njg1OTc0MTIxMSIgeDE9Ii0xMzEuNTI5Njg1OTc0MTIxMSIgY2xhc3M9ImRpdmlkZXIiPjwvbGluZT48bGluZSB5Mj0iMTcuNjk5OTk5ODA5MjY1MTM3IiB5MT0iMTcuNjk5OTk5ODA5MjY1MTM3IiB4Mj0iMTMxLjUyOTY4NTk3NDEyMTEiIHgxPSItMTMxLjUyOTY4NTk3NDEyMTEiIGNsYXNzPSJkaXZpZGVyIj48L2xpbmU+PGcgY2xhc3M9ImxhYmVsIj48dGV4dCBzdHlsZT0iIj48dHNwYW4gY2xhc3M9InRpdGxlLXJvdyIgeD0iMCIgZHk9IjFlbSIgeG1sOnNwYWNlPSJwcmVzZXJ2ZSI+PC90c3Bhbj48L3RleHQ+PHRleHQgdHJhbnNmb3JtPSJ0cmFuc2xhdGUoIC00OS40MDg1OTYwMzg4MTgzNiwgLTg4LjM5OTk5ODY2NDg1NTk2KSIgY2xhc3M9ImNsYXNzVGl0bGUiIHN0eWxlPSIiPjx0c3BhbiBjbGFzcz0idGl0bGUtcm93IiB4PSIwIiBkeT0iMWVtIiB4bWw6c3BhY2U9InByZXNlcnZlIj5DaGF0UHJvdmlkZXI8L3RzcGFuPjwvdGV4dD48dGV4dCB0cmFuc2Zvcm09InRyYW5zbGF0ZSggLTEyNC4wMjk2ODU5NzQxMjExLCAtNTMuOTk5OTk5MDQ2MzI1Njg0KSIgc3R5bGU9IiI+PHRzcGFuIGNsYXNzPSJ0aXRsZS1yb3ciIHg9IjAiIGR5PSIxZW0iIHhtbDpzcGFjZT0icHJlc2VydmUiPitzYyBTY3JvbGxDb250cm9sbGVyPC90c3Bhbj48L3RleHQ+PHRleHQgdHJhbnNmb3JtPSJ0cmFuc2xhdGUoIC0xMjQuMDI5Njg1OTc0MTIxMSwgLTMxLjU5OTk5OTQyNzc5NTQxKSIgc3R5bGU9IiI+PHRzcGFuIGNsYXNzPSJ0aXRsZS1yb3ciIHg9IjAiIGR5PSIxZW0iIHhtbDpzcGFjZT0icHJlc2VydmUiPitnZXRZZXNOb2Fuc3dlciBHZXRZZXNOb0Fuc3dlcjwvdHNwYW4+PC90ZXh0Pjx0ZXh0IHRyYW5zZm9ybT0idHJhbnNsYXRlKCAtMTI0LjAyOTY4NTk3NDEyMTEsIC05LjE5OTk5OTgwOTI2NTEzNykiIHN0eWxlPSIiPjx0c3BhbiBjbGFzcz0idGl0bGUtcm93IiB4PSIwIiBkeT0iMWVtIiB4bWw6c3BhY2U9InByZXNlcnZlIj4rbWVzc2FnZXMgTGlzdCZsdDtNZXNzYWdlJmd0OzwvdHNwYW4+PC90ZXh0Pjx0ZXh0IHRyYW5zZm9ybT0idHJhbnNsYXRlKCAtMTI0LjAyOTY4NTk3NDEyMTEsIDI1LjE5OTk5OTgwOTI2NTEzNykiIHN0eWxlPSIiPjx0c3BhbiBjbGFzcz0idGl0bGUtcm93IiB4PSIwIiBkeT0iMWVtIiB4bWw6c3BhY2U9InByZXNlcnZlIj4rc2VuZE1lc3NhZ2UoKSA6IGR5bmFtaWM8L3RzcGFuPjwvdGV4dD48dGV4dCB0cmFuc2Zvcm09InRyYW5zbGF0ZSggLTEyNC4wMjk2ODU5NzQxMjExLCA0Ny41OTk5OTk0Mjc3OTU0MSkiIHN0eWxlPSIiPjx0c3BhbiBjbGFzcz0idGl0bGUtcm93IiB4PSIwIiBkeT0iMWVtIiB4bWw6c3BhY2U9InByZXNlcnZlIj4rc2Nyb2xsVG9Cb3R0b20oKSA6IGR5bmFtaWM8L3RzcGFuPjwvdGV4dD48dGV4dCB0cmFuc2Zvcm09InRyYW5zbGF0ZSggLTEyNC4wMjk2ODU5NzQxMjExLCA2OS45OTk5OTkwNDYzMjU2OCkiIHN0eWxlPSIiPjx0c3BhbiBjbGFzcz0idGl0bGUtcm93IiB4PSIwIiBkeT0iMWVtIiB4bWw6c3BhY2U9InByZXNlcnZlIj4rb3RoZXJSZXBseSgpIDogZHluYW1pYzwvdHNwYW4+PC90ZXh0PjwvZz48L2c+PGcgdHJhbnNmb3JtPSJ0cmFuc2xhdGUoMTI5Mi44OTYwODc2NDY0ODQ0LCA0ODYuNzAwMDAwNzYyOTM5NDUpIiBpZD0iY2xhc3NpZC1TY3JvbGxDb250cm9sbGVyLTEyIiBjbGFzcz0ibm9kZSBkZWZhdWx0Ij48cmVjdCBoZWlnaHQ9IjU3LjM5OTk5OTYxODUzMDI3IiB3aWR0aD0iMTMzLjA1MTU2NzA3NzYzNjcyIiB5PSItMjguNjk5OTk5ODA5MjY1MTM3IiB4PSItNjYuNTI1NzgzNTM4ODE4MzYiIGNsYXNzPSJvdXRlciB0aXRsZS1zdGF0ZSI+PC9yZWN0PjxsaW5lIHkyPSIxLjY5OTk5OTgwOTI2NTEzNjciIHkxPSIxLjY5OTk5OTgwOTI2NTEzNjciIHgyPSI2Ni41MjU3ODM1Mzg4MTgzNiIgeDE9Ii02Ni41MjU3ODM1Mzg4MTgzNiIgY2xhc3M9ImRpdmlkZXIiPjwvbGluZT48bGluZSB5Mj0iMTcuNjk5OTk5ODA5MjY1MTM3IiB5MT0iMTcuNjk5OTk5ODA5MjY1MTM3IiB4Mj0iNjYuNTI1NzgzNTM4ODE4MzYiIHgxPSItNjYuNTI1NzgzNTM4ODE4MzYiIGNsYXNzPSJkaXZpZGVyIj48L2xpbmU+PGcgY2xhc3M9ImxhYmVsIj48dGV4dCBzdHlsZT0iIj48dHNwYW4gY2xhc3M9InRpdGxlLXJvdyIgeD0iMCIgZHk9IjFlbSIgeG1sOnNwYWNlPSJwcmVzZXJ2ZSI+PC90c3Bhbj48L3RleHQ+PHRleHQgdHJhbnNmb3JtPSJ0cmFuc2xhdGUoIC01OS4wMjU3ODM1Mzg4MTgzNiwgLTIxLjE5OTk5OTgwOTI2NTEzNykiIGNsYXNzPSJjbGFzc1RpdGxlIiBzdHlsZT0iIj48dHNwYW4gY2xhc3M9InRpdGxlLXJvdyIgeD0iMCIgZHk9IjFlbSIgeG1sOnNwYWNlPSJwcmVzZXJ2ZSI+U2Nyb2xsQ29udHJvbGxlcjwvdHNwYW4+PC90ZXh0PjwvZz48L2c+PGcgdHJhbnNmb3JtPSJ0cmFuc2xhdGUoMTUyNi40MjY1NTk0NDgyNDIyLCA3MC4yOTk5OTkyMzcwNjA1NSkiIGlkPSJjbGFzc2lkLUNoYW5nZU5vdGlmaWVyLTEzIiBjbGFzcz0ibm9kZSBkZWZhdWx0Ij48cmVjdCBoZWlnaHQ9IjU3LjM5OTk5OTYxODUzMDI3IiB3aWR0aD0iMTI3LjQwMzEyOTU3NzYzNjcyIiB5PSItMjguNjk5OTk5ODA5MjY1MTM3IiB4PSItNjMuNzAxNTY0Nzg4ODE4MzYiIGNsYXNzPSJvdXRlciB0aXRsZS1zdGF0ZSI+PC9yZWN0PjxsaW5lIHkyPSIxLjY5OTk5OTgwOTI2NTEzNjciIHkxPSIxLjY5OTk5OTgwOTI2NTEzNjciIHgyPSI2My43MDE1NjQ3ODg4MTgzNiIgeDE9Ii02My43MDE1NjQ3ODg4MTgzNiIgY2xhc3M9ImRpdmlkZXIiPjwvbGluZT48bGluZSB5Mj0iMTcuNjk5OTk5ODA5MjY1MTM3IiB5MT0iMTcuNjk5OTk5ODA5MjY1MTM3IiB4Mj0iNjMuNzAxNTY0Nzg4ODE4MzYiIHgxPSItNjMuNzAxNTY0Nzg4ODE4MzYiIGNsYXNzPSJkaXZpZGVyIj48L2xpbmU+PGcgY2xhc3M9ImxhYmVsIj48dGV4dCBzdHlsZT0iIj48dHNwYW4gY2xhc3M9InRpdGxlLXJvdyIgeD0iMCIgZHk9IjFlbSIgeG1sOnNwYWNlPSJwcmVzZXJ2ZSI+PC90c3Bhbj48L3RleHQ+PHRleHQgdHJhbnNmb3JtPSJ0cmFuc2xhdGUoIC01Ni4yMDE1NjQ3ODg4MTgzNiwgLTIxLjE5OTk5OTgwOTI2NTEzNykiIGNsYXNzPSJjbGFzc1RpdGxlIiBzdHlsZT0iIj48dHNwYW4gY2xhc3M9InRpdGxlLXJvdyIgeD0iMCIgZHk9IjFlbSIgeG1sOnNwYWNlPSJwcmVzZXJ2ZSI+Q2hhbmdlTm90aWZpZXI8L3RzcGFuPjwvdGV4dD48L2c+PC9nPjxnIHRyYW5zZm9ybT0idHJhbnNsYXRlKDY0Mi4wNzU3Njc1MTcwODk4LCAyNzguNSkiIGlkPSJjbGFzc2lkLU15TWVzc2FnZUJ1YmJsZS0xNCIgY2xhc3M9Im5vZGUgZGVmYXVsdCI+PHJlY3QgaGVpZ2h0PSIxMDIuMTk5OTk4ODU1NTkwODIiIHdpZHRoPSIxNDguODE0MDcxNjU1MjczNDQiIHk9Ii01MS4wOTk5OTk0Mjc3OTU0MSIgeD0iLTc0LjQwNzAzNTgyNzYzNjcyIiBjbGFzcz0ib3V0ZXIgdGl0bGUtc3RhdGUiPjwvcmVjdD48bGluZSB5Mj0iLTIwLjY5OTk5OTgwOTI2NTEzNyIgeTE9Ii0yMC42OTk5OTk4MDkyNjUxMzciIHgyPSI3NC40MDcwMzU4Mjc2MzY3MiIgeDE9Ii03NC40MDcwMzU4Mjc2MzY3MiIgY2xhc3M9ImRpdmlkZXIiPjwvbGluZT48bGluZSB5Mj0iMTcuNjk5OTk5ODA5MjY1MTM3IiB5MT0iMTcuNjk5OTk5ODA5MjY1MTM3IiB4Mj0iNzQuNDA3MDM1ODI3NjM2NzIiIHgxPSItNzQuNDA3MDM1ODI3NjM2NzIiIGNsYXNzPSJkaXZpZGVyIj48L2xpbmU+PGcgY2xhc3M9ImxhYmVsIj48dGV4dCBzdHlsZT0iIj48dHNwYW4gY2xhc3M9InRpdGxlLXJvdyIgeD0iMCIgZHk9IjFlbSIgeG1sOnNwYWNlPSJwcmVzZXJ2ZSI+PC90c3Bhbj48L3RleHQ+PHRleHQgdHJhbnNmb3JtPSJ0cmFuc2xhdGUoIC02Ni45MDcwMzU4Mjc2MzY3MiwgLTQzLjU5OTk5OTQyNzc5NTQxKSIgY2xhc3M9ImNsYXNzVGl0bGUiIHN0eWxlPSIiPjx0c3BhbiBjbGFzcz0idGl0bGUtcm93IiB4PSIwIiBkeT0iMWVtIiB4bWw6c3BhY2U9InByZXNlcnZlIj5NeU1lc3NhZ2VCdWJibGU8L3RzcGFuPjwvdGV4dD48dGV4dCB0cmFuc2Zvcm09InRyYW5zbGF0ZSggLTY2LjkwNzAzNTgyNzYzNjcyLCAtOS4xOTk5OTk4MDkyNjUxMzcpIiBzdHlsZT0iIj48dHNwYW4gY2xhc3M9InRpdGxlLXJvdyIgeD0iMCIgZHk9IjFlbSIgeG1sOnNwYWNlPSJwcmVzZXJ2ZSI+K21lc3NhZ2UgTWVzc2FnZTwvdHNwYW4+PC90ZXh0Pjx0ZXh0IHRyYW5zZm9ybT0idHJhbnNsYXRlKCAtNjYuOTA3MDM1ODI3NjM2NzIsIDI1LjE5OTk5OTgwOTI2NTEzNykiIHN0eWxlPSIiPjx0c3BhbiBjbGFzcz0idGl0bGUtcm93IiB4PSIwIiBkeT0iMWVtIiB4bWw6c3BhY2U9InByZXNlcnZlIj4rYnVpbGQoKSA6IFdpZGdldDwvdHNwYW4+PC90ZXh0PjwvZz48L2c+PGcgdHJhbnNmb3JtPSJ0cmFuc2xhdGUoODYyLjQyNDIwOTU5NDcyNjYsIDI3OC41KSIgaWQ9ImNsYXNzaWQtTXlNZXNzYWdlQnViYmxlT3RoZXItMTUiIGNsYXNzPSJub2RlIGRlZmF1bHQiPjxyZWN0IGhlaWdodD0iMTI0LjU5OTk5ODQ3NDEyMTEiIHdpZHRoPSIxOTEuODgyODEyNSIgeT0iLTYyLjI5OTk5OTIzNzA2MDU1IiB4PSItOTUuOTQxNDA2MjUiIGNsYXNzPSJvdXRlciB0aXRsZS1zdGF0ZSI+PC9yZWN0PjxsaW5lIHkyPSItMzEuODk5OTk5NjE4NTMwMjczIiB5MT0iLTMxLjg5OTk5OTYxODUzMDI3MyIgeDI9Ijk1Ljk0MTQwNjI1IiB4MT0iLTk1Ljk0MTQwNjI1IiBjbGFzcz0iZGl2aWRlciI+PC9saW5lPjxsaW5lIHkyPSI2LjUiIHkxPSI2LjUiIHgyPSI5NS45NDE0MDYyNSIgeDE9Ii05NS45NDE0MDYyNSIgY2xhc3M9ImRpdmlkZXIiPjwvbGluZT48ZyBjbGFzcz0ibGFiZWwiPjx0ZXh0IHN0eWxlPSIiPjx0c3BhbiBjbGFzcz0idGl0bGUtcm93IiB4PSIwIiBkeT0iMWVtIiB4bWw6c3BhY2U9InByZXNlcnZlIj48L3RzcGFuPjwvdGV4dD48dGV4dCB0cmFuc2Zvcm09InRyYW5zbGF0ZSggLTg4LjQ0MTQwNjI1LCAtNTQuNzk5OTk5MjM3MDYwNTUpIiBjbGFzcz0iY2xhc3NUaXRsZSIgc3R5bGU9IiI+PHRzcGFuIGNsYXNzPSJ0aXRsZS1yb3ciIHg9IjAiIGR5PSIxZW0iIHhtbDpzcGFjZT0icHJlc2VydmUiPk15TWVzc2FnZUJ1YmJsZU90aGVyPC90c3Bhbj48L3RleHQ+PHRleHQgdHJhbnNmb3JtPSJ0cmFuc2xhdGUoIC04OC40NDE0MDYyNSwgLTIwLjM5OTk5OTYxODUzMDI3MykiIHN0eWxlPSIiPjx0c3BhbiBjbGFzcz0idGl0bGUtcm93IiB4PSIwIiBkeT0iMWVtIiB4bWw6c3BhY2U9InByZXNlcnZlIj4rbWVzc2FnZSBNZXNzYWdlPC90c3Bhbj48L3RleHQ+PHRleHQgdHJhbnNmb3JtPSJ0cmFuc2xhdGUoIC04OC40NDE0MDYyNSwgMTQpIiBzdHlsZT0iIj48dHNwYW4gY2xhc3M9InRpdGxlLXJvdyIgeD0iMCIgZHk9IjFlbSIgeG1sOnNwYWNlPSJwcmVzZXJ2ZSI+K2J1aWxkKCkgOiBXaWRnZXQ8L3RzcGFuPjwvdGV4dD48dGV4dCB0cmFuc2Zvcm09InRyYW5zbGF0ZSggLTg4LjQ0MTQwNjI1LCAzNi4zOTk5OTk2MTg1MzAyNykiIHN0eWxlPSIiPjx0c3BhbiBjbGFzcz0idGl0bGUtcm93IiB4PSIwIiBkeT0iMWVtIiB4bWw6c3BhY2U9InByZXNlcnZlIj4rbm91dygpIDogU3RyaW5nPC90c3Bhbj48L3RleHQ+PC9nPjwvZz48ZyB0cmFuc2Zvcm09InRyYW5zbGF0ZSgxMDc2LjY0MzczNzc5Mjk2ODgsIDI3OC41KSIgaWQ9ImNsYXNzaWQtX0ltYWdlQnViYmxlLTE2IiBjbGFzcz0ibm9kZSBkZWZhdWx0Ij48cmVjdCBoZWlnaHQ9IjEwMi4xOTk5OTg4NTU1OTA4MiIgd2lkdGg9IjEzNi41NTYyNTE1MjU4Nzg5IiB5PSItNTEuMDk5OTk5NDI3Nzk1NDEiIHg9Ii02OC4yNzgxMjU3NjI5Mzk0NSIgY2xhc3M9Im91dGVyIHRpdGxlLXN0YXRlIj48L3JlY3Q+PGxpbmUgeTI9Ii0yMC42OTk5OTk4MDkyNjUxMzciIHkxPSItMjAuNjk5OTk5ODA5MjY1MTM3IiB4Mj0iNjguMjc4MTI1NzYyOTM5NDUiIHgxPSItNjguMjc4MTI1NzYyOTM5NDUiIGNsYXNzPSJkaXZpZGVyIj48L2xpbmU+PGxpbmUgeTI9IjE3LjY5OTk5OTgwOTI2NTEzNyIgeTE9IjE3LjY5OTk5OTgwOTI2NTEzNyIgeDI9IjY4LjI3ODEyNTc2MjkzOTQ1IiB4MT0iLTY4LjI3ODEyNTc2MjkzOTQ1IiBjbGFzcz0iZGl2aWRlciI+PC9saW5lPjxnIGNsYXNzPSJsYWJlbCI+PHRleHQgc3R5bGU9IiI+PHRzcGFuIGNsYXNzPSJ0aXRsZS1yb3ciIHg9IjAiIGR5PSIxZW0iIHhtbDpzcGFjZT0icHJlc2VydmUiPjwvdHNwYW4+PC90ZXh0Pjx0ZXh0IHRyYW5zZm9ybT0idHJhbnNsYXRlKCAtNTMuMDE2NDA3MDEyOTM5NDUsIC00My41OTk5OTk0Mjc3OTU0MSkiIGNsYXNzPSJjbGFzc1RpdGxlIiBzdHlsZT0iIj48dHNwYW4gY2xhc3M9InRpdGxlLXJvdyIgeD0iMCIgZHk9IjFlbSIgeG1sOnNwYWNlPSJwcmVzZXJ2ZSI+X0ltYWdlQnViYmxlPC90c3Bhbj48L3RleHQ+PHRleHQgdHJhbnNmb3JtPSJ0cmFuc2xhdGUoIC02MC43NzgxMjU3NjI5Mzk0NSwgLTkuMTk5OTk5ODA5MjY1MTM3KSIgc3R5bGU9IiI+PHRzcGFuIGNsYXNzPSJ0aXRsZS1yb3ciIHg9IjAiIGR5PSIxZW0iIHhtbDpzcGFjZT0icHJlc2VydmUiPit1cmwgU3RyaW5nPzwvdHNwYW4+PC90ZXh0Pjx0ZXh0IHRyYW5zZm9ybT0idHJhbnNsYXRlKCAtNjAuNzc4MTI1NzYyOTM5NDUsIDI1LjE5OTk5OTgwOTI2NTEzNykiIHN0eWxlPSIiPjx0c3BhbiBjbGFzcz0idGl0bGUtcm93IiB4PSIwIiBkeT0iMWVtIiB4bWw6c3BhY2U9InByZXNlcnZlIj4rYnVpbGQoKSA6IFdpZGdldDwvdHNwYW4+PC90ZXh0PjwvZz48L2c+PGcgdHJhbnNmb3JtPSJ0cmFuc2xhdGUoMTc4Ni40NjcxOTM2MDM1MTU2LCA3MC4yOTk5OTkyMzcwNjA1NSkiIGlkPSJjbGFzc2lkLU1lc3NhZ2VGaWVsZEJveC0xNyIgY2xhc3M9Im5vZGUgZGVmYXVsdCI+PHJlY3QgaGVpZ2h0PSIxMDIuMTk5OTk4ODU1NTkwODIiIHdpZHRoPSIyMjIuNjI1IiB5PSItNTEuMDk5OTk5NDI3Nzk1NDEiIHg9Ii0xMTEuMzEyNSIgY2xhc3M9Im91dGVyIHRpdGxlLXN0YXRlIj48L3JlY3Q+PGxpbmUgeTI9Ii0yMC42OTk5OTk4MDkyNjUxMzciIHkxPSItMjAuNjk5OTk5ODA5MjY1MTM3IiB4Mj0iMTExLjMxMjUiIHgxPSItMTExLjMxMjUiIGNsYXNzPSJkaXZpZGVyIj48L2xpbmU+PGxpbmUgeTI9IjE3LjY5OTk5OTgwOTI2NTEzNyIgeTE9IjE3LjY5OTk5OTgwOTI2NTEzNyIgeDI9IjExMS4zMTI1IiB4MT0iLTExMS4zMTI1IiBjbGFzcz0iZGl2aWRlciI+PC9saW5lPjxnIGNsYXNzPSJsYWJlbCI+PHRleHQgc3R5bGU9IiI+PHRzcGFuIGNsYXNzPSJ0aXRsZS1yb3ciIHg9IjAiIGR5PSIxZW0iIHhtbDpzcGFjZT0icHJlc2VydmUiPjwvdHNwYW4+PC90ZXh0Pjx0ZXh0IHRyYW5zZm9ybT0idHJhbnNsYXRlKCAtNjMuNDY5NTMyMDEyOTM5NDUsIC00My41OTk5OTk0Mjc3OTU0MSkiIGNsYXNzPSJjbGFzc1RpdGxlIiBzdHlsZT0iIj48dHNwYW4gY2xhc3M9InRpdGxlLXJvdyIgeD0iMCIgZHk9IjFlbSIgeG1sOnNwYWNlPSJwcmVzZXJ2ZSI+TWVzc2FnZUZpZWxkQm94PC90c3Bhbj48L3RleHQ+PHRleHQgdHJhbnNmb3JtPSJ0cmFuc2xhdGUoIC0xMDMuODEyNSwgLTkuMTk5OTk5ODA5MjY1MTM3KSIgc3R5bGU9IiI+PHRzcGFuIGNsYXNzPSJ0aXRsZS1yb3ciIHg9IjAiIGR5PSIxZW0iIHhtbDpzcGFjZT0icHJlc2VydmUiPitvblZhbHVlIHZvaWQgRnVuY3Rpb25TdHJpbmc8L3RzcGFuPjwvdGV4dD48dGV4dCB0cmFuc2Zvcm09InRyYW5zbGF0ZSggLTEwMy44MTI1LCAyNS4xOTk5OTk4MDkyNjUxMzcpIiBzdHlsZT0iIj48dHNwYW4gY2xhc3M9InRpdGxlLXJvdyIgeD0iMCIgZHk9IjFlbSIgeG1sOnNwYWNlPSJwcmVzZXJ2ZSI+K2J1aWxkKCkgOiBXaWRnZXQ8L3RzcGFuPjwvdGV4dD48L2c+PC9nPjxnIHRyYW5zZm9ybT0idHJhbnNsYXRlKDE3ODYuNDY3MTkzNjAzNTE1NiwgMjc4LjUpIiBpZD0iY2xhc3NpZC12b2lkRnVuY3Rpb25TdHJpbmctMTgiIGNsYXNzPSJub2RlIGRlZmF1bHQiPjxyZWN0IGhlaWdodD0iNTcuMzk5OTk5NjE4NTMwMjciIHdpZHRoPSIxNTcuMDIxODgxMTAzNTE1NjIiIHk9Ii0yOC42OTk5OTk4MDkyNjUxMzciIHg9Ii03OC41MTA5NDA1NTE3NTc4MSIgY2xhc3M9Im91dGVyIHRpdGxlLXN0YXRlIj48L3JlY3Q+PGxpbmUgeTI9IjEuNjk5OTk5ODA5MjY1MTM2NyIgeTE9IjEuNjk5OTk5ODA5MjY1MTM2NyIgeDI9Ijc4LjUxMDk0MDU1MTc1NzgxIiB4MT0iLTc4LjUxMDk0MDU1MTc1NzgxIiBjbGFzcz0iZGl2aWRlciI+PC9saW5lPjxsaW5lIHkyPSIxNy42OTk5OTk4MDkyNjUxMzciIHkxPSIxNy42OTk5OTk4MDkyNjUxMzciIHgyPSI3OC41MTA5NDA1NTE3NTc4MSIgeDE9Ii03OC41MTA5NDA1NTE3NTc4MSIgY2xhc3M9ImRpdmlkZXIiPjwvbGluZT48ZyBjbGFzcz0ibGFiZWwiPjx0ZXh0IHN0eWxlPSIiPjx0c3BhbiBjbGFzcz0idGl0bGUtcm93IiB4PSIwIiBkeT0iMWVtIiB4bWw6c3BhY2U9InByZXNlcnZlIj48L3RzcGFuPjwvdGV4dD48dGV4dCB0cmFuc2Zvcm09InRyYW5zbGF0ZSggLTcxLjAxMDk0MDU1MTc1NzgxLCAtMjEuMTk5OTk5ODA5MjY1MTM3KSIgY2xhc3M9ImNsYXNzVGl0bGUiIHN0eWxlPSIiPjx0c3BhbiBjbGFzcz0idGl0bGUtcm93IiB4PSIwIiBkeT0iMWVtIiB4bWw6c3BhY2U9InByZXNlcnZlIj52b2lkRnVuY3Rpb25TdHJpbmc8L3RzcGFuPjwvdGV4dD48L2c+PC9nPjxnIHRyYW5zZm9ybT0idHJhbnNsYXRlKDEyNjkuOTA5MzYyNzkyOTY4OCwgMjc4LjUpIiBpZD0iY2xhc3NpZC1NZXNzYWdlRmllbGRCb3h2LTE5IiBjbGFzcz0ibm9kZSBkZWZhdWx0Ij48cmVjdCBoZWlnaHQ9IjU3LjM5OTk5OTYxODUzMDI3IiB3aWR0aD0iMTQ5Ljk3NTAwNjEwMzUxNTYyIiB5PSItMjguNjk5OTk5ODA5MjY1MTM3IiB4PSItNzQuOTg3NTAzMDUxNzU3ODEiIGNsYXNzPSJvdXRlciB0aXRsZS1zdGF0ZSI+PC9yZWN0PjxsaW5lIHkyPSIxLjY5OTk5OTgwOTI2NTEzNjciIHkxPSIxLjY5OTk5OTgwOTI2NTEzNjciIHgyPSI3NC45ODc1MDMwNTE3NTc4MSIgeDE9Ii03NC45ODc1MDMwNTE3NTc4MSIgY2xhc3M9ImRpdmlkZXIiPjwvbGluZT48bGluZSB5Mj0iMTcuNjk5OTk5ODA5MjY1MTM3IiB5MT0iMTcuNjk5OTk5ODA5MjY1MTM3IiB4Mj0iNzQuOTg3NTAzMDUxNzU3ODEiIHgxPSItNzQuOTg3NTAzMDUxNzU3ODEiIGNsYXNzPSJkaXZpZGVyIj48L2xpbmU+PGcgY2xhc3M9ImxhYmVsIj48dGV4dCBzdHlsZT0iIj48dHNwYW4gY2xhc3M9InRpdGxlLXJvdyIgeD0iMCIgZHk9IjFlbSIgeG1sOnNwYWNlPSJwcmVzZXJ2ZSI+PC90c3Bhbj48L3RleHQ+PHRleHQgdHJhbnNmb3JtPSJ0cmFuc2xhdGUoIC02Ny40ODc1MDMwNTE3NTc4MSwgLTIxLjE5OTk5OTgwOTI2NTEzNykiIGNsYXNzPSJjbGFzc1RpdGxlIiBzdHlsZT0iIj48dHNwYW4gY2xhc3M9InRpdGxlLXJvdyIgeD0iMCIgZHk9IjFlbSIgeG1sOnNwYWNlPSJwcmVzZXJ2ZSI+TWVzc2FnZUZpZWxkQm94djwvdHNwYW4+PC90ZXh0PjwvZz48L2c+PC9nPjwvZz48L2c+PC9zdmc+;" parent="1" vertex="1">
                        <mxGeometry x="10" y="80" width="1280" height="800" as="geometry"/>
                    </mxCell>
                </UserObject>
            </root>
        </mxGraphModel>
    </diagram>
</mxfile>